<mxfile host="Electron" agent="Mozilla/5.0 (X11; Linux x86_64) AppleWebKit/537.36 (KHTML, like Gecko) draw.io/28.2.5 Chrome/138.0.7204.251 Electron/37.6.1 Safari/537.36" version="28.2.5">
  <diagram name="as-is" id="-FQbQIRzEgXYEJ3rUFKh">
    <mxGraphModel dx="3178" dy="3020" grid="1" gridSize="10" guides="1" tooltips="1" connect="1" arrows="1" fold="1" page="1" pageScale="1" pageWidth="827" pageHeight="1169" math="0" shadow="0">
      <root>
        <mxCell id="0" />
        <mxCell id="1" parent="0" />
        <mxCell id="Zcm5tQwCMB2YyKj0-IPv-7" value="&lt;div style=&quot;font-size: 1px&quot;&gt;&lt;font style=&quot;font-size:22.58px;font-family:Arial;color:#000000;direction:ltr;letter-spacing:0px;line-height:120%;opacity:1&quot;&gt;Зона доступности 1&lt;br&gt;&lt;/font&gt;&lt;/div&gt;" style="verticalAlign=bottom;align=center;overflow=width;vsdxID=5;fillColor=#e3ebff;gradientColor=none;shape=stencil(vVNBDsIgEHwNRwxCjHqu+g9iaUtEaBa09fdSwdpi9dBDb8vOwOwsGcQyW/FaIEqsA3MRjcxdhdgBUSp1JUA6XyF2RCwrDIgSzE3n4VzzjtlVV3PvXmjDPdLdoOQRTrvtavNqnAKXw9mDELkBIhDJaxrJZIy/YRLfbjFvpcVgHHfS6JGu4lAK7GVwoXg5gmwjRP3VjoMpqQcm9tPKs0z0Y6crWcBHqt0PN8tJspXFfmNKdpaBH8tYwML/VPjiE6dCKhXSOMTT+PlWiC47PgE=);strokeColor=none;spacingTop=-3;spacingBottom=-3;spacingLeft=-3;spacingRight=-3;points=[];labelBackgroundColor=none;rounded=0;html=1;whiteSpace=wrap;container=0;" parent="1" vertex="1">
          <mxGeometry x="340" y="-435" width="800" height="1085" as="geometry" />
        </mxCell>
        <mxCell id="Zcm5tQwCMB2YyKj0-IPv-42" style="edgeStyle=orthogonalEdgeStyle;rounded=0;orthogonalLoop=1;jettySize=auto;html=1;entryX=0.479;entryY=-0.037;entryDx=0;entryDy=0;entryPerimeter=0;" parent="1" source="Zcm5tQwCMB2YyKj0-IPv-39" target="AOUFwX7jz5b8gHtSBeTc-62" edge="1">
          <mxGeometry relative="1" as="geometry">
            <Array as="points" />
            <mxPoint x="1000.4320000000002" y="-740.5070000000001" as="targetPoint" />
          </mxGeometry>
        </mxCell>
        <mxCell id="Zcm5tQwCMB2YyKj0-IPv-14" value="" style="shape=image;verticalLabelPosition=bottom;verticalAlign=top;imageAspect=0;aspect=fixed;image=data:image/svg+xml,PHN2ZyB4bWxucz0iaHR0cDovL3d3dy53My5vcmcvMjAwMC9zdmciIHdpZHRoPSIzMiIgaGVpZ2h0PSIzMiIgdmlld0JveD0iMCAwIDMyIDMyIiBmaWxsPSJub25lIj4mI3hhOzxwYXRoIGQ9Ik0wIDE2QzAgNy4xNjM0NCA3LjE2MzQ0IDAgMTYgMFYwQzI0LjgzNjYgMCAzMiA3LjE2MzQ0IDMyIDE2VjE2QzMyIDI0LjgzNjYgMjQuODM2NiAzMiAxNiAzMlYzMkM3LjE2MzQ0IDMyIDAgMjQuODM2NiAwIDE2VjE2WiIgZmlsbD0iIzUyODJGRiIvPiYjeGE7PHBhdGggZD0iTTExLjk5NSAyNEw3LjAwMDk4IDE3LjczOEw4Ljc4MTk4IDkuOTI3TDE2IDYuNDUzTDIzLjIxOCA5LjkyOEwyNC45OTkgMTcuNzM5TDIwLjAwNSAyNEgxMS45OTVaTTIwIDEzLjE5NkwxNS45OTkgMTAuODk5TDEyIDEzLjE5NlYxOC4xTDE2IDIwLjQwMUwyMCAxOC4xVjEzLjE5NlpNMTguNzggMTMuODk2SDE4Ljc4N0wxNiAxNS40OTlMMTMuMjE0IDEzLjg5NUgxMy4yMTlMMTUuOTk5IDEyLjI5OUwxOC43OCAxMy44OTZaIiBmaWxsPSJ3aGl0ZSIvPiYjeGE7PC9zdmc+;container=0;" parent="1" vertex="1">
          <mxGeometry x="625" y="-120" width="28.571428571428573" height="28.571428571428573" as="geometry" />
        </mxCell>
        <mxCell id="Zcm5tQwCMB2YyKj0-IPv-15" style="vsdxID=5;fillColor=none;gradientColor=none;shape=stencil(vVPLEoIgFP0aljgEVuPa6j+YRGUica6U9vdhUKk4LWzG3X0cOPdcOIilTclrgShpDOiLaGVmSsQOiFJZlQKksRFiR8TSXIMoQN+qzOU175F9dNX3/obOnSP9CUoeLktIFL8KJ4flcLZN8NhtRJiDwxsf7VwhQHjAhniCDvNONhi04UbqakSuOBQCWy6cK16MWk0rRB2U/XRKVgMlSRwl+1nyhWI+s0+Xs4KYgNvPtlBKuJvVniX4En+9yfxWVpDx2yc2+Bosl0o5fw77U0PakjMzOz4B);strokeColor=#ff5958;spacingTop=-3;spacingBottom=-3;spacingLeft=-3;spacingRight=-3;points=[];labelBackgroundColor=none;rounded=0;html=1;whiteSpace=wrap;container=0;" parent="1" vertex="1">
          <mxGeometry x="560" y="-130" width="130" height="100" as="geometry" />
        </mxCell>
        <mxCell id="Zcm5tQwCMB2YyKj0-IPv-16" value="&lt;div style=&quot;font-size: 1px&quot;&gt;&lt;font style=&quot;font-size:22.58px;font-family:Arial;color:#000000;direction:ltr;letter-spacing:0px;line-height:120%;opacity:1&quot;&gt;InsureTech&lt;/font&gt;&lt;/div&gt;&lt;div style=&quot;font-size: 1px&quot;&gt;&lt;font style=&quot;font-size:22.58px;font-family:Arial;color:#000000;direction:ltr;letter-spacing:0px;line-height:120%;opacity:1&quot;&gt;namespace&lt;/font&gt;&lt;/div&gt;" style="verticalAlign=bottom;align=center;overflow=width;vsdxID=6;fillColor=none;gradientColor=none;strokeColor=none;spacingTop=-3;spacingBottom=-3;spacingLeft=-3;spacingRight=-3;points=[];labelBackgroundColor=none;rounded=0;html=1;whiteSpace=wrap;container=0;" parent="1" vertex="1">
          <mxGeometry x="560" y="-90" width="130" height="54" as="geometry" />
        </mxCell>
        <mxCell id="Zcm5tQwCMB2YyKj0-IPv-38" value="" style="aspect=fixed;sketch=0;html=1;dashed=0;whitespace=wrap;verticalLabelPosition=bottom;verticalAlign=top;fillColor=#2875E2;strokeColor=#ffffff;points=[[0.005,0.63,0],[0.1,0.2,0],[0.9,0.2,0],[0.5,0,0],[0.995,0.63,0],[0.72,0.99,0],[0.5,1,0],[0.28,0.99,0]];shape=mxgraph.kubernetes.icon2;prIcon=group;container=0;" parent="1" vertex="1">
          <mxGeometry x="1219" y="-920" width="50" height="48" as="geometry" />
        </mxCell>
        <mxCell id="Zcm5tQwCMB2YyKj0-IPv-39" style="vsdxID=5;fillColor=none;gradientColor=none;shape=stencil(vVPLEoIgFP0aljgEVuPa6j+YRGUica6U9vdhUKk4LWzG3X0cOPdcOIilTclrgShpDOiLaGVmSsQOiFJZlQKksRFiR8TSXIMoQN+qzOU175F9dNX3/obOnSP9CUoeLktIFL8KJ4flcLZN8NhtRJiDwxsf7VwhQHjAhniCDvNONhi04UbqakSuOBQCWy6cK16MWk0rRB2U/XRKVgMlSRwl+1nyhWI+s0+Xs4KYgNvPtlBKuJvVniX4En+9yfxWVpDx2yc2+Bosl0o5fw77U0PakjMzOz4B);strokeColor=#ff5958;spacingTop=-3;spacingBottom=-3;spacingLeft=-3;spacingRight=-3;points=[];labelBackgroundColor=none;rounded=0;html=1;whiteSpace=wrap;container=0;" parent="1" vertex="1">
          <mxGeometry x="1135" y="-930" width="152" height="130" as="geometry" />
        </mxCell>
        <mxCell id="Zcm5tQwCMB2YyKj0-IPv-40" value="&lt;div style=&quot;font-size: 1px&quot;&gt;&lt;font style=&quot;font-size:22.58px;font-family:Arial;color:#000000;direction:ltr;letter-spacing:0px;line-height:120%;opacity:1&quot;&gt;Браузер&amp;nbsp;&lt;/font&gt;&lt;/div&gt;&lt;div style=&quot;font-size: 1px&quot;&gt;&lt;font style=&quot;font-size:22.58px;font-family:Arial;color:#000000;direction:ltr;letter-spacing:0px;line-height:120%;opacity:1&quot;&gt;пользователя&lt;/font&gt;&lt;/div&gt;" style="verticalAlign=bottom;align=center;overflow=width;vsdxID=6;fillColor=none;gradientColor=none;strokeColor=none;spacingTop=-3;spacingBottom=-3;spacingLeft=-3;spacingRight=-3;points=[];labelBackgroundColor=none;rounded=0;html=1;whiteSpace=wrap;container=0;" parent="1" vertex="1">
          <mxGeometry x="1135" y="-863" width="152" height="53" as="geometry" />
        </mxCell>
        <mxCell id="Zcm5tQwCMB2YyKj0-IPv-57" value="" style="group" parent="1" vertex="1" connectable="0">
          <mxGeometry x="390" y="-150" width="320" height="133.71" as="geometry" />
        </mxCell>
        <mxCell id="Zcm5tQwCMB2YyKj0-IPv-8" value="" style="shape=image;verticalLabelPosition=bottom;verticalAlign=top;imageAspect=0;aspect=fixed;image=data:image/svg+xml,PHN2ZyB4bWxucz0iaHR0cDovL3d3dy53My5vcmcvMjAwMC9zdmciIHdpZHRoPSIzMiIgaGVpZ2h0PSIzMiIgdmlld0JveD0iMCAwIDMyIDMyIiBmaWxsPSJub25lIj4mI3hhOzxwYXRoIGQ9Ik0wIDE2QzAgNy4xNjM0NCA3LjE2MzQ0IDAgMTYgMFYwQzI0LjgzNjYgMCAzMiA3LjE2MzQ0IDMyIDE2VjE2QzMyIDI0LjgzNjYgMjQuODM2NiAzMiAxNiAzMlYzMkM3LjE2MzQ0IDMyIDAgMjQuODM2NiAwIDE2VjE2WiIgZmlsbD0iIzUyODJGRiIvPiYjeGE7PHBhdGggZD0iTTExLjk5NSAyNEw3LjAwMDk4IDE3LjczOEw4Ljc4MTk4IDkuOTI3TDE2IDYuNDUzTDIzLjIxOCA5LjkyOEwyNC45OTkgMTcuNzM5TDIwLjAwNSAyNEgxMS45OTVaTTIwIDEzLjE5NkwxNS45OTkgMTAuODk5TDEyIDEzLjE5NlYxOC4xTDE2IDIwLjQwMUwyMCAxOC4xVjEzLjE5NlpNMTguNzggMTMuODk2SDE4Ljc4N0wxNiAxNS40OTlMMTMuMjE0IDEzLjg5NUgxMy4yMTlMMTUuOTk5IDEyLjI5OUwxOC43OCAxMy44OTZaIiBmaWxsPSJ3aGl0ZSIvPiYjeGE7PC9zdmc+;container=0;" parent="Zcm5tQwCMB2YyKj0-IPv-57" vertex="1">
          <mxGeometry x="43.99515151515152" y="86.14999999999996" width="27.69545454545455" height="27.69545454545455" as="geometry" />
        </mxCell>
        <mxCell id="Zcm5tQwCMB2YyKj0-IPv-6" value="&lt;div style=&quot;font-size: 1px&quot;&gt;&lt;font style=&quot;font-size:22.58px;font-family:Arial;color:#000000;direction:ltr;letter-spacing:0px;line-height:120%;opacity:1&quot;&gt;Kubernetes&lt;br&gt;&lt;/font&gt;&lt;/div&gt;&lt;div style=&quot;font-size: 1px&quot;&gt;&lt;font style=&quot;font-size:22.58px;font-family:Arial;color:#000000;direction:ltr;letter-spacing:0px;line-height:120%;opacity:1&quot;&gt;cluster 1&lt;/font&gt;&lt;/div&gt;" style="verticalAlign=middle;align=center;overflow=width;vsdxID=7;fillColor=none;gradientColor=none;shape=stencil(nZBLDoAgDERP0z3SIyjew0SURgSD+Lu9kMZoXLhwN9O+tukAlrNpJg1SzDH4QW/URgNYgZTkjA4UkwJUgGXng+6DX1zLfmoymdXo17xh5zmRJ6Q42BWCfc2oJfdAr+Yv+AP9Cb7OJ3H/2JG1HNGz/84klThPVCc=);strokeColor=none;points=[];labelBackgroundColor=none;rounded=0;html=1;whiteSpace=wrap;container=0;" parent="Zcm5tQwCMB2YyKj0-IPv-57" vertex="1">
          <mxGeometry x="9.696969696969697" width="116.36363636363637" height="86.13999999999999" as="geometry" />
        </mxCell>
        <mxCell id="AOUFwX7jz5b8gHtSBeTc-114" style="edgeStyle=orthogonalEdgeStyle;rounded=0;orthogonalLoop=1;jettySize=auto;html=1;" parent="1" source="Zcm5tQwCMB2YyKj0-IPv-5" target="AOUFwX7jz5b8gHtSBeTc-43" edge="1">
          <mxGeometry relative="1" as="geometry" />
        </mxCell>
        <mxCell id="Zcm5tQwCMB2YyKj0-IPv-5" style="vsdxID=6;fillColor=none;gradientColor=none;shape=stencil(vVNdD4IgFP01POIQms1nq//BEpVF4q6U9u/DoFJxPdjm2/04cO65cBDL2oo3AlHSGtAX0cncVIgdEKWyrgRIYyPEjohlhQZRgr7VucsbPiCH6Krvww29O0eGE5Q8XJaSaPcqnByWw9k2wWNZRFMHhzc+SlwhQHhATDxBj3kvWwzacCN1PSFXHEqBLRcuFC8nrbYTognKfjol65GSNIn28SL5SjGf2efL2UBMwO1nWykl3M1mzxJ8ib/eZHkrG8j47RMbfA1WSKWcP8f9uSFtyZmZHZ8=);strokeColor=#5282ff;spacingTop=-3;spacingBottom=-3;spacingLeft=-3;spacingRight=-3;points=[];labelBackgroundColor=none;rounded=0;html=1;whiteSpace=wrap;container=0;" parent="1" vertex="1">
          <mxGeometry x="380" y="-160" width="330" height="290" as="geometry" />
        </mxCell>
        <mxCell id="AOUFwX7jz5b8gHtSBeTc-29" style="vsdxID=5;fillColor=none;gradientColor=none;strokeColor=none;shadow=1;spacingTop=-3;spacingBottom=-3;spacingLeft=-3;spacingRight=-3;points=[];labelBackgroundColor=none;rounded=0;html=1;whiteSpace=wrap;" parent="1" vertex="1">
          <mxGeometry x="619.9200000000001" y="-410" width="524" height="169" as="geometry" />
        </mxCell>
        <mxCell id="AOUFwX7jz5b8gHtSBeTc-30" value="&lt;div&gt;&lt;font style=&quot;font-size: 18px;&quot;&gt;&lt;br&gt;&lt;/font&gt;&lt;/div&gt;&lt;font style=&quot;font-size: 18px;&quot;&gt;Data Center Load Balancer&lt;/font&gt;&lt;div&gt;&lt;font style=&quot;font-size: 18px;&quot;&gt;with DDos protection&lt;/font&gt;&lt;/div&gt;&lt;div&gt;&lt;font style=&quot;font-size: 18px;&quot;&gt;[NGINX]&lt;/font&gt;&lt;/div&gt;" style="vsdxID=6;fillColor=#ffffff;gradientColor=none;shape=stencil(vVNhD4IgEP01fNQRLJefzf4HS1QWgTsp7d8HoaVRa7PNb8fdO969g4do1tas4Yjg1oA+8U4UpkZ0jwgRquYgjI0QzRHNSg28An1RhT83zCFddNZXd0Pv+7DrIPjmTymOE/rIHDyYwdFWYQAnMd56PIwNMd35TAAZEBs8UPQR60UbgTbMCK1m9JJBxSNLFpWSVbNS23HeBOlhPCnUREtK4/Qz+VI1z+GD/awgJyAfp1uqJtzPak8TfIv/3uXLYlYQ8sMvNng5rRRSeqNO6+/OtCnvaprfAQ==);strokeColor=none;shadow=1;spacingTop=-3;spacingBottom=-3;spacingLeft=-3;spacingRight=-3;points=[];labelBackgroundColor=none;rounded=0;html=1;whiteSpace=wrap;" parent="AOUFwX7jz5b8gHtSBeTc-29" vertex="1">
          <mxGeometry width="262" height="169" as="geometry" />
        </mxCell>
        <mxCell id="AOUFwX7jz5b8gHtSBeTc-69" style="vsdxID=5;fillColor=none;gradientColor=none;strokeColor=none;spacingTop=-3;spacingBottom=-3;spacingLeft=-3;spacingRight=-3;points=[];labelBackgroundColor=none;rounded=0;html=1;whiteSpace=wrap;" parent="AOUFwX7jz5b8gHtSBeTc-29" vertex="1">
          <mxGeometry x="114.49999999999994" y="20" width="33" height="33" as="geometry" />
        </mxCell>
        <mxCell id="AOUFwX7jz5b8gHtSBeTc-70" style="vsdxID=6;fillColor=#5282ff;gradientColor=none;shape=stencil(jZLdDoIwDIWfZrdkawN4a1DfgwjIIoKZoPD2Al3ANhLlqj+n65dDFSaPMr3nCvSjdc01f9msLRUeFICty9zZdowUHhUmRePyi2u6OqP8nk7KKbo1z+mFnuZCPY2AHig1mvITac+dI7GhdhwHkcE41P4zftjwad2DKAzAH/AylDJkVDOF3n8BWSd8ASDAXWRgQYs5yRa5b2sOFAqeXzjLdg4l3BBebCIjl//riXBEWC2Xcpb1z204wA5jXl/Z+u87GoP1AAtbVXS/n315sGOJjh2Pbw==);strokeColor=none;spacingTop=-3;spacingBottom=-3;spacingLeft=-3;spacingRight=-3;points=[];labelBackgroundColor=none;rounded=0;html=1;whiteSpace=wrap;" parent="AOUFwX7jz5b8gHtSBeTc-69" vertex="1">
          <mxGeometry width="33" height="33" as="geometry" />
        </mxCell>
        <mxCell id="AOUFwX7jz5b8gHtSBeTc-71" style="vsdxID=7;fillColor=#FFFFFF;gradientColor=none;shape=stencil(nVjbbtswDP2avAriRaT4OOzyH8WarcG6Zki7rf370YvjRJRnJwuQwHF0osPbIeUNvX9+uPux3WB+fjnsv21/7+5fHjb0YYO4e3rYHnYvfrWhjxt6/2V/2H497H8+3R+//7gbVg5X3/e/hn94PeI0J64DCvPb8U6FhOXvnU9HwOPuaREgJUFdAPAq4PPPw5ETjBBLZMqoAmzCIxjOaD0SzK84cZaKmZihGJ52G38UTihVSx5fMGJpxFKqNCLGW4LpwgP5XWdTlcTW2tRAepNqTUJFTJAVSMyCUZxo4NiaZTnVjJWxuGHGEwhnPDFSt5IqB2tad8+YY3YGXRXTHtBlTXQA5Nya7B4pncGaQAwz1FKqSmuum2YVMBhcnam0Bp+2OpvbJRgl4FqcQ1aoIRZhH5zynkCVsoi/S0utsYX6QqFZJ81E4opybOuXxcneUr89oHjuLcQaNAk2AF34+351kUU++f8XM6XbqNwMuM2RXLzGbwFADXxinv6FsNdDESfjAnDK9FNRQepEo6DLnRkykpqGRJ3cO6VpcQ5R/laz1LcIerFS/d4EBuUFZcklB0U/See51moCAKSSTSGqXg7171yw5b9W/YMWV28Jmbl2SpxbKkbJpHImQGYOVDze0Z3Deg1y1HeTyGh+l1OQvRt2DW/WBGyydslFXYC7gM2GAMIGOEXX5dpblNWcCQObc3ipTx+arYSZnLvM039Uzxpgpfz7rO4AN6U1h1RazGrS6KWZqE2L/jO3Lza5Jr3d/K7dzuR3Wau3xewuvolPPq5t40sCQ0zeqL1VEymxtgy9XeS+BCGdZry3s8ihrrHMSf1TjF1uKbL02OWY9o7gApmdmtOP1DRZ7t2XU4ipr5NILQybPlyEjr3cJX0CqHATwFm1peKsiixmvnl1FfBBUXyapeAtt928ZU0jN4dKMI85DzMeKBIEx1UftKJiuAvKJoZ0VcM0VSQuUgUlUnR16GRMBj2nYjpQpI6WxWgOR5tYDL6MNkvhdNAkkbOY2XG1kJ+FKmvOqp0lANZ1CFezSiIKPlATxMaladDPbmTthbmsDgO9zq5kWw9YGVn9cCTL66PDHFF8CPK8wVyw9VedOT8Oxx02dpEy8H4bxbmaV2BXy6IpOMvo9i5maz1mfp6DiJ5s+efMeB4dOlMuR9OrzypXHD384vzg4cvu8fH43OLy9/igwm8dH3LQxz8=);strokeColor=none;spacingTop=-3;spacingBottom=-3;spacingLeft=-3;spacingRight=-3;points=[];labelBackgroundColor=none;rounded=0;html=1;whiteSpace=wrap;" parent="AOUFwX7jz5b8gHtSBeTc-69" vertex="1">
          <mxGeometry x="7" y="8" width="18" height="16" as="geometry" />
        </mxCell>
        <mxCell id="AOUFwX7jz5b8gHtSBeTc-31" style="edgeStyle=orthogonalEdgeStyle;rounded=0;orthogonalLoop=1;jettySize=auto;html=1;" parent="1" source="AOUFwX7jz5b8gHtSBeTc-30" target="Zcm5tQwCMB2YyKj0-IPv-5" edge="1">
          <mxGeometry relative="1" as="geometry" />
        </mxCell>
        <mxCell id="AOUFwX7jz5b8gHtSBeTc-32" style="edgeStyle=orthogonalEdgeStyle;rounded=0;orthogonalLoop=1;jettySize=auto;html=1;entryX=0.427;entryY=0.009;entryDx=0;entryDy=0;entryPerimeter=0;" parent="1" source="AOUFwX7jz5b8gHtSBeTc-30" target="AOUFwX7jz5b8gHtSBeTc-101" edge="1">
          <mxGeometry relative="1" as="geometry">
            <mxPoint x="940.0344827586209" y="-150" as="targetPoint" />
          </mxGeometry>
        </mxCell>
        <mxCell id="AOUFwX7jz5b8gHtSBeTc-35" style="edgeStyle=orthogonalEdgeStyle;rounded=0;orthogonalLoop=1;jettySize=auto;html=1;" parent="1" source="AOUFwX7jz5b8gHtSBeTc-62" target="AOUFwX7jz5b8gHtSBeTc-30" edge="1">
          <mxGeometry relative="1" as="geometry">
            <mxPoint x="775.5" y="-460" as="targetPoint" />
            <mxPoint x="991" y="-571" as="sourcePoint" />
          </mxGeometry>
        </mxCell>
        <mxCell id="AOUFwX7jz5b8gHtSBeTc-86" style="edgeStyle=orthogonalEdgeStyle;rounded=0;orthogonalLoop=1;jettySize=auto;html=1;" parent="1" source="AOUFwX7jz5b8gHtSBeTc-39" target="AOUFwX7jz5b8gHtSBeTc-63" edge="1">
          <mxGeometry relative="1" as="geometry" />
        </mxCell>
        <mxCell id="AOUFwX7jz5b8gHtSBeTc-39" style="vsdxID=5;fillColor=none;gradientColor=none;shape=stencil(vVPLEoIgFP0aljgEVuPa6j+YRGUica6U9vdhUKk4LWzG3X0cOPdcOIilTclrgShpDOiLaGVmSsQOiFJZlQKksRFiR8TSXIMoQN+qzOU175F9dNX3/obOnSP9CUoeLktIFL8KJ4flcLZN8NhtRJiDwxsf7VwhQHjAhniCDvNONhi04UbqakSuOBQCWy6cK16MWk0rRB2U/XRKVgMlSRwl+1nyhWI+s0+Xs4KYgNvPtlBKuJvVniX4En+9yfxWVpDx2yc2+Bosl0o5fw77U0PakjMzOz4B);strokeColor=#ff5958;spacingTop=-3;spacingBottom=-3;spacingLeft=-3;spacingRight=-3;points=[];labelBackgroundColor=none;rounded=0;html=1;whiteSpace=wrap;container=0;" parent="1" vertex="1">
          <mxGeometry x="723" y="408.7829411764702" width="130" height="105.5" as="geometry" />
        </mxCell>
        <mxCell id="AOUFwX7jz5b8gHtSBeTc-40" value="&lt;div style=&quot;font-size: 1px&quot;&gt;&lt;font style=&quot;font-size:22.58px;font-family:Arial;color:#000000;direction:ltr;letter-spacing:0px;line-height:120%;opacity:1&quot;&gt;PosrgreSQL&lt;br&gt;&lt;/font&gt;&lt;/div&gt;&lt;div style=&quot;font-size: 1px&quot;&gt;&lt;font style=&quot;font-size:22.58px;font-family:Arial;color:#000000;direction:ltr;letter-spacing:0px;line-height:120%;opacity:1&quot;&gt;(master)&lt;/font&gt;&lt;/div&gt;" style="verticalAlign=bottom;align=center;overflow=width;vsdxID=6;fillColor=none;gradientColor=none;strokeColor=none;spacingTop=-3;spacingBottom=-3;spacingLeft=-3;spacingRight=-3;points=[];labelBackgroundColor=none;rounded=0;html=1;whiteSpace=wrap;container=0;" parent="1" vertex="1">
          <mxGeometry x="723" y="453.78294117647033" width="130" height="53.21" as="geometry" />
        </mxCell>
        <mxCell id="AOUFwX7jz5b8gHtSBeTc-41" value="" style="shape=image;verticalLabelPosition=bottom;verticalAlign=top;imageAspect=0;aspect=fixed;image=data:image/svg+xml,PHN2ZyB4bWxucz0iaHR0cDovL3d3dy53My5vcmcvMjAwMC9zdmciIHdpZHRoPSIzMiIgaGVpZ2h0PSIzMiIgdmlld0JveD0iMCAwIDMyIDMyIiBmaWxsPSJub25lIj4mI3hhOzxwYXRoIGQ9Ik0wIDE2QzAgNy4xNjM0NCA3LjE2MzQ0IDAgMTYgMFYwQzI0LjgzNjYgMCAzMiA3LjE2MzQ0IDMyIDE2VjE2QzMyIDI0LjgzNjYgMjQuODM2NiAzMiAxNiAzMlYzMkM3LjE2MzQ0IDMyIDAgMjQuODM2NiAwIDE2VjE2WiIgZmlsbD0iIzUyODJGRiIvPiYjeGE7PHBhdGggZmlsbC1ydWxlPSJldmVub2RkIiBjbGlwLXJ1bGU9ImV2ZW5vZGQiIGQ9Ik0xMyA4SDE4QzIxLjMgOCAyNCAxMC43IDI0IDE0VjI0SDIwVjIwSDIyVjE5SDE4LjZDMTUuNSAxOSAxMyAxNi41IDEzIDEzLjRWOFpNMTkgMTdIMjFWMTVIMTlWMTdaTTEyIDkuMDk5OThWMTMuNEMxMiAxNi44IDE0LjYgMTkuNyAxOCAyMC4xVjIwLjZDMTggMjIgMTUuOCAyMy4xIDEzIDIzLjFDMTAuMiAyMy4xIDggMjIgOCAyMC42VjExLjZDOCAxMC4zIDkuNyA5LjI5OTk4IDEyIDkuMDk5OThaIiBmaWxsPSJ3aGl0ZSIvPiYjeGE7PC9zdmc+;container=0;" parent="1" vertex="1">
          <mxGeometry x="767.5" y="412.7829411764702" width="36.26923076923077" height="36.26923076923077" as="geometry" />
        </mxCell>
        <mxCell id="AOUFwX7jz5b8gHtSBeTc-42" value="" style="group" parent="1" vertex="1" connectable="0">
          <mxGeometry x="700" y="180.58000000000004" width="430" height="359.42" as="geometry" />
        </mxCell>
        <mxCell id="AOUFwX7jz5b8gHtSBeTc-43" style="vsdxID=6;fillColor=none;gradientColor=none;shape=stencil(vVNdD4IgFP01POIQms1nq//BEpVF4q6U9u/DoFJxPdjm2/04cO65cBDL2oo3AlHSGtAX0cncVIgdEKWyrgRIYyPEjohlhQZRgr7VucsbPiCH6Krvww29O0eGE5Q8XJaSaPcqnByWw9k2wWNZRFMHhzc+SlwhQHhATDxBj3kvWwzacCN1PSFXHEqBLRcuFC8nrbYTognKfjol65GSNIn28SL5SjGf2efL2UBMwO1nWykl3M1mzxJ8ib/eZHkrG8j47RMbfA1WSKWcP8f9uSFtyZmZHZ8=);strokeColor=#5282ff;spacingTop=-3;spacingBottom=-3;spacingLeft=-3;spacingRight=-3;points=[];labelBackgroundColor=none;rounded=0;html=1;whiteSpace=wrap;container=0;" parent="AOUFwX7jz5b8gHtSBeTc-42" vertex="1">
          <mxGeometry width="394.1666666666667" height="359.42" as="geometry" />
        </mxCell>
        <mxCell id="AOUFwX7jz5b8gHtSBeTc-88" style="edgeStyle=orthogonalEdgeStyle;rounded=0;orthogonalLoop=1;jettySize=auto;html=1;" parent="1" source="AOUFwX7jz5b8gHtSBeTc-46" target="AOUFwX7jz5b8gHtSBeTc-49" edge="1">
          <mxGeometry relative="1" as="geometry" />
        </mxCell>
        <mxCell id="AOUFwX7jz5b8gHtSBeTc-46" style="vsdxID=5;fillColor=none;gradientColor=none;shape=stencil(vVPLEoIgFP0aljgEVuPa6j+YRGUica6U9vdhUKk4LWzG3X0cOPdcOIilTclrgShpDOiLaGVmSsQOiFJZlQKksRFiR8TSXIMoQN+qzOU175F9dNX3/obOnSP9CUoeLktIFL8KJ4flcLZN8NhtRJiDwxsf7VwhQHjAhniCDvNONhi04UbqakSuOBQCWy6cK16MWk0rRB2U/XRKVgMlSRwl+1nyhWI+s0+Xs4KYgNvPtlBKuJvVniX4En+9yfxWVpDx2yc2+Bosl0o5fw77U0PakjMzOz4B);strokeColor=#ff5958;spacingTop=-3;spacingBottom=-3;spacingLeft=-3;spacingRight=-3;points=[];labelBackgroundColor=none;rounded=0;html=1;whiteSpace=wrap;container=0;" parent="1" vertex="1">
          <mxGeometry x="727.6300000000001" y="290" width="130" height="95.5" as="geometry" />
        </mxCell>
        <mxCell id="AOUFwX7jz5b8gHtSBeTc-47" value="&lt;div style=&quot;&quot;&gt;&lt;font face=&quot;Arial&quot;&gt;&lt;span style=&quot;font-size: 22.58px;&quot;&gt;PgBouncer&lt;/span&gt;&lt;/font&gt;&lt;/div&gt;" style="verticalAlign=bottom;align=center;overflow=width;vsdxID=6;fillColor=none;gradientColor=none;strokeColor=none;spacingTop=-3;spacingBottom=-3;spacingLeft=-3;spacingRight=-3;points=[];labelBackgroundColor=none;rounded=0;html=1;whiteSpace=wrap;container=0;" parent="1" vertex="1">
          <mxGeometry x="727.6300000000001" y="325" width="130" height="53.21" as="geometry" />
        </mxCell>
        <mxCell id="AOUFwX7jz5b8gHtSBeTc-48" value="" style="shape=image;verticalLabelPosition=bottom;verticalAlign=top;imageAspect=0;aspect=fixed;image=data:image/svg+xml,PHN2ZyB4bWxucz0iaHR0cDovL3d3dy53My5vcmcvMjAwMC9zdmciIHdpZHRoPSIzMiIgaGVpZ2h0PSIzMiIgdmlld0JveD0iMCAwIDMyIDMyIiBmaWxsPSJub25lIj4mI3hhOzxwYXRoIGQ9Ik0wIDE2QzAgNy4xNjM0NCA3LjE2MzQ0IDAgMTYgMFYwQzI0LjgzNjYgMCAzMiA3LjE2MzQ0IDMyIDE2VjE2QzMyIDI0LjgzNjYgMjQuODM2NiAzMiAxNiAzMlYzMkM3LjE2MzQ0IDMyIDAgMjQuODM2NiAwIDE2VjE2WiIgZmlsbD0iIzUyODJGRiIvPiYjeGE7PHBhdGggZmlsbC1ydWxlPSJldmVub2RkIiBjbGlwLXJ1bGU9ImV2ZW5vZGQiIGQ9Ik0xMyA4SDE4QzIxLjMgOCAyNCAxMC43IDI0IDE0VjI0SDIwVjIwSDIyVjE5SDE4LjZDMTUuNSAxOSAxMyAxNi41IDEzIDEzLjRWOFpNMTkgMTdIMjFWMTVIMTlWMTdaTTEyIDkuMDk5OThWMTMuNEMxMiAxNi44IDE0LjYgMTkuNyAxOCAyMC4xVjIwLjZDMTggMjIgMTUuOCAyMy4xIDEzIDIzLjFDMTAuMiAyMy4xIDggMjIgOCAyMC42VjExLjZDOCAxMC4zIDkuNyA5LjI5OTk4IDEyIDkuMDk5OThaIiBmaWxsPSJ3aGl0ZSIvPiYjeGE7PC9zdmc+;container=0;" parent="1" vertex="1">
          <mxGeometry x="774.5" y="302.75" width="36.26923076923077" height="36.26923076923077" as="geometry" />
        </mxCell>
        <mxCell id="AOUFwX7jz5b8gHtSBeTc-87" style="edgeStyle=orthogonalEdgeStyle;rounded=0;orthogonalLoop=1;jettySize=auto;html=1;" parent="1" source="AOUFwX7jz5b8gHtSBeTc-49" target="AOUFwX7jz5b8gHtSBeTc-63" edge="1">
          <mxGeometry relative="1" as="geometry" />
        </mxCell>
        <mxCell id="AOUFwX7jz5b8gHtSBeTc-49" style="vsdxID=5;fillColor=none;gradientColor=none;shape=stencil(vVPLEoIgFP0aljgEVuPa6j+YRGUica6U9vdhUKk4LWzG3X0cOPdcOIilTclrgShpDOiLaGVmSsQOiFJZlQKksRFiR8TSXIMoQN+qzOU175F9dNX3/obOnSP9CUoeLktIFL8KJ4flcLZN8NhtRJiDwxsf7VwhQHjAhniCDvNONhi04UbqakSuOBQCWy6cK16MWk0rRB2U/XRKVgMlSRwl+1nyhWI+s0+Xs4KYgNvPtlBKuJvVniX4En+9yfxWVpDx2yc2+Bosl0o5fw77U0PakjMzOz4B);strokeColor=#ff5958;spacingTop=-3;spacingBottom=-3;spacingLeft=-3;spacingRight=-3;points=[];labelBackgroundColor=none;rounded=0;html=1;whiteSpace=wrap;container=0;" parent="1" vertex="1">
          <mxGeometry x="897" y="237" width="170" height="122.75" as="geometry" />
        </mxCell>
        <mxCell id="AOUFwX7jz5b8gHtSBeTc-50" value="&lt;div style=&quot;font-size: 1px&quot;&gt;&lt;font style=&quot;font-size:22.58px;font-family:Arial;color:#000000;direction:ltr;letter-spacing:0px;line-height:120%;opacity:1&quot;&gt;PosrgreSQL&lt;br&gt;&lt;/font&gt;&lt;/div&gt;&lt;div style=&quot;font-size: 1px&quot;&gt;&lt;font style=&quot;font-size:22.58px;font-family:Arial;color:#000000;direction:ltr;letter-spacing:0px;line-height:120%;opacity:1&quot;&gt;(Read Replica)&lt;/font&gt;&lt;/div&gt;" style="verticalAlign=bottom;align=center;overflow=width;vsdxID=6;fillColor=none;gradientColor=none;strokeColor=none;spacingTop=-3;spacingBottom=-3;spacingLeft=-3;spacingRight=-3;points=[];labelBackgroundColor=none;rounded=0;html=1;whiteSpace=wrap;container=0;" parent="1" vertex="1">
          <mxGeometry x="904" y="289.75" width="160" height="53.21" as="geometry" />
        </mxCell>
        <mxCell id="AOUFwX7jz5b8gHtSBeTc-54" style="edgeStyle=orthogonalEdgeStyle;rounded=0;orthogonalLoop=1;jettySize=auto;html=1;entryX=0.534;entryY=-0.013;entryDx=0;entryDy=0;entryPerimeter=0;" parent="1" source="AOUFwX7jz5b8gHtSBeTc-46" target="AOUFwX7jz5b8gHtSBeTc-39" edge="1">
          <mxGeometry relative="1" as="geometry" />
        </mxCell>
        <mxCell id="AOUFwX7jz5b8gHtSBeTc-185" style="edgeStyle=orthogonalEdgeStyle;rounded=0;orthogonalLoop=1;jettySize=auto;html=1;" parent="1" source="AOUFwX7jz5b8gHtSBeTc-62" target="AOUFwX7jz5b8gHtSBeTc-129" edge="1">
          <mxGeometry relative="1" as="geometry" />
        </mxCell>
        <mxCell id="AOUFwX7jz5b8gHtSBeTc-62" value="&lt;div style=&quot;font-size: 1px&quot;&gt;&lt;font style=&quot;font-size:22.58px;font-family:Arial;color:#000000;direction:ltr;letter-spacing:0px;line-height:120%;opacity:1&quot;&gt;&lt;span style=&quot;font-family: Helvetica; font-size: 12px;&quot;&gt;&lt;br&gt;&lt;/span&gt;&lt;/font&gt;&lt;/div&gt;&lt;div style=&quot;font-size: 1px&quot;&gt;&lt;font style=&quot;font-size:22.58px;font-family:Arial;color:#000000;direction:ltr;letter-spacing:0px;line-height:120%;opacity:1&quot;&gt;&lt;span style=&quot;font-family: Helvetica; font-size: 12px;&quot;&gt;Global Load Balancer&lt;/span&gt;&lt;div style=&quot;font-family: Helvetica; font-size: 12px;&quot;&gt;by CDN provider&lt;/div&gt;&lt;div style=&quot;font-family: Helvetica; font-size: 12px;&quot;&gt;[Cloudflare]&lt;/div&gt;&lt;/font&gt;&lt;/div&gt;" style="verticalAlign=middle;align=center;overflow=width;vsdxID=5;fillColor=#e3ebff;gradientColor=none;shape=stencil(vVNBDsIgEHwNRwxCjHqu+g9iaUtEaBa09fdSwdpi9dBDb8vOwOwsGcQyW/FaIEqsA3MRjcxdhdgBUSp1JUA6XyF2RCwrDIgSzE3n4VzzjtlVV3PvXmjDPdLdoOQRTrvtavNqnAKXw9mDELkBIhDJaxrJZIy/YRLfbjFvpcVgHHfS6JGu4lAK7GVwoXg5gmwjRP3VjoMpqQcm9tPKs0z0Y6crWcBHqt0PN8tJspXFfmNKdpaBH8tYwML/VPjiE6dCKhXSOMTT+PlWiC47PgE=);strokeColor=none;spacingTop=-3;spacingBottom=-3;spacingLeft=-3;spacingRight=-3;points=[];labelBackgroundColor=none;rounded=0;html=1;whiteSpace=wrap;" parent="1" vertex="1">
          <mxGeometry x="1110" y="-720" width="211" height="140" as="geometry" />
        </mxCell>
        <mxCell id="AOUFwX7jz5b8gHtSBeTc-118" style="edgeStyle=orthogonalEdgeStyle;rounded=0;orthogonalLoop=1;jettySize=auto;html=1;" parent="1" source="AOUFwX7jz5b8gHtSBeTc-63" target="AOUFwX7jz5b8gHtSBeTc-77" edge="1">
          <mxGeometry relative="1" as="geometry">
            <Array as="points">
              <mxPoint x="982" y="560" />
              <mxPoint x="528" y="560" />
            </Array>
          </mxGeometry>
        </mxCell>
        <mxCell id="AOUFwX7jz5b8gHtSBeTc-63" style="vsdxID=5;fillColor=none;gradientColor=none;shape=stencil(vVPLEoIgFP0aljgEVuPa6j+YRGUica6U9vdhUKk4LWzG3X0cOPdcOIilTclrgShpDOiLaGVmSsQOiFJZlQKksRFiR8TSXIMoQN+qzOU175F9dNX3/obOnSP9CUoeLktIFL8KJ4flcLZN8NhtRJiDwxsf7VwhQHjAhniCDvNONhi04UbqakSuOBQCWy6cK16MWk0rRB2U/XRKVgMlSRwl+1nyhWI+s0+Xs4KYgNvPtlBKuJvVniX4En+9yfxWVpDx2yc2+Bosl0o5fw77U0PakjMzOz4B);strokeColor=#ff5958;spacingTop=-3;spacingBottom=-3;spacingLeft=-3;spacingRight=-3;points=[];labelBackgroundColor=none;rounded=0;html=1;whiteSpace=wrap;container=0;" parent="1" vertex="1">
          <mxGeometry x="917" y="409" width="130" height="105.5" as="geometry" />
        </mxCell>
        <mxCell id="AOUFwX7jz5b8gHtSBeTc-64" value="&lt;div style=&quot;&quot;&gt;&lt;font face=&quot;Arial&quot;&gt;&lt;span style=&quot;font-size: 22.58px;&quot;&gt;PostgreSQL Exporter&lt;/span&gt;&lt;/font&gt;&lt;/div&gt;" style="verticalAlign=bottom;align=center;overflow=width;vsdxID=6;fillColor=none;gradientColor=none;strokeColor=none;spacingTop=-3;spacingBottom=-3;spacingLeft=-3;spacingRight=-3;points=[];labelBackgroundColor=none;rounded=0;html=1;whiteSpace=wrap;container=0;" parent="1" vertex="1">
          <mxGeometry x="917" y="452.5100000000002" width="130" height="53.21" as="geometry" />
        </mxCell>
        <mxCell id="AOUFwX7jz5b8gHtSBeTc-66" style="vsdxID=5;fillColor=none;gradientColor=none;strokeColor=none;spacingTop=-3;spacingBottom=-3;spacingLeft=-3;spacingRight=-3;points=[];labelBackgroundColor=none;rounded=0;html=1;whiteSpace=wrap;" parent="1" vertex="1">
          <mxGeometry x="968" y="249.75" width="33" height="33" as="geometry" />
        </mxCell>
        <mxCell id="AOUFwX7jz5b8gHtSBeTc-67" style="vsdxID=6;fillColor=#5282ff;gradientColor=none;shape=stencil(jZLRDoIwDEW/Zq9ka8XBo0H8DyIgiwhmgMLfyywGNiRhT+12253elGHUFMkzY8CbVtf37K3StmB4ZgCqKjKt2jFiGDOM8lpnN113VUr5MzFKEz3ql+nQU53PTQnwgVLKLqS8dpqkgh6l9PxQikD6U41YFvEeKBX813O6APAwXJ5Jj64eLaYvBT/9AZkrZrKjDbFideF6dAxwaLZ/H8c5cJCBAMeHuTdYxgywokRbsHdwZ+wtY2EL1ObassClKFW1c2PGYF60XJUl7eny3V3M8YqWGuMP);strokeColor=none;spacingTop=-3;spacingBottom=-3;spacingLeft=-3;spacingRight=-3;points=[];labelBackgroundColor=none;rounded=0;html=1;whiteSpace=wrap;" parent="AOUFwX7jz5b8gHtSBeTc-66" vertex="1">
          <mxGeometry width="33" height="33" as="geometry" />
        </mxCell>
        <mxCell id="AOUFwX7jz5b8gHtSBeTc-68" style="vsdxID=7;fillColor=#FFFFFF;gradientColor=none;shape=stencil(pVjRctw2DPyae+UABAgQj500/Y9M4zSeunbGSdr077u8s6QTxZPsZsbJ2HekCAKL3YVO8u7r5w9f7k6Zvn57fvrz7p/7j98+n+TXU873j5/vnu+/4beTvD/Ju09Pz3d/PD99f/x4+fvLh7ay/fbX09/tCT8u+yhRbpsy/Xv5oGrSev7kt8v6h/vH6/WrxayJ+Hrx79+fL0/n+fEmSkZqXCRyvGznZX+JbF5cqSqRXr7/kaftLFRDXdnDdYo0z7uZhNgtV3eOmHbLtHvaIMsGXcKlXwYR56QiRMHiJsbreC3ljINKroLTiHwdbpZUw6iSS1SKdbS0Dq7QlLo5PDoIzQ33xam5eBSr69BoHUp4KqUiZVlbnPNRef8iL5FEpHqcujUymA6wsb98g7v+9suGlw9CEimuyMLUMLROgHsyEi+oI5uWDjl0XI1pzQ5UgBVGrkrNktexLQfMSCY2M6leFHCXQtSh+cZ1ZixTB+YuYYOKHPf2mgsqGibWGyLZbn/jibhruANFhbvurhUYDDGyiDyld0pI9cQl44dYi9R1LvClVLBGoDLo7nUqEBSXLhfAczmoVlByriiNAA61655akpjVYk61eBdqcJLCqtUkS9EuVMVjOYOmapBE10ecTDZlkz7UddmuN710qyXZL0MkJFpbIajI+mrm4FhvV864vm6qUBiY9OwKFHckgRYKrgLuVg+ZKyhzzjTWl7Oa8hHBekmewZCiKnUu5PQlgUGro0ZZIBfrYE2AT6+suaK9uzo4mpGwsxRuinHY3m09H4Qq1iATgpIg4k4LxgdOSoC+gBJwIyDq0jq+48Kzhd+eVG63CbNo9Z+KfIUAC8vU/mXrksoE5JeqbSP0YIMAAj4EhQICoLAdApJ4F+saqQN0Y8/Ue0tD+C64k7XWU6tOyFjXuMP2mxoXRSAOqZFLD+5xx8/cn6q9nWJQBTwQOM0K3uqqMOa0qQpoChgccdQHhmgjDmMqnaKN5B1mOuIey5ejf4u6w3jBUKyjBQm5cDU1JF9gh9bxSk0MYJtBX613OlAy+BRpakfgncNWbOsPYjVuPXPWR0hnJ7bj8xZeKHCfhItWCHUXKW6ZNWDaUDbpUXCthzt57fB9LKJr1d3SfQHir9cfyQOK4fn/yoNEQo0ZeRU4wi55u/KgcOdEpRBnuFE4gHKoD9hiR020qw8q4BcV0iYCXbC78qCaIH6C/hOSKoeYPK//GXkYH/gKeWhXJBh3TCC4iS0z0W2FeE1azwrhjEkgL3PWHGwrpcCXws4CKUspr0UCA5pXRMVdEzUElWpAENgZN+4DBuN3XNoAe6gSk7KMe2JzPbCrQKtAAcX661lOAESUpiHW2LVTa8nJMiiQtTaj02lgQb6jDVwBk2s9+Q6w03YcYQfKKto8AMGQ1tlbzRHfOHTqSwRcoG3F2l7rAsZtK6we7uJ5krEdR9pSu1+Nn6eofv0RBQpPs8srD4CA2i5Axiae590CbxEY58BjGOm6YbLNDhSwGAo3Bp/UCR5a0vRslIgMCIpueGsTi66TzpLcTvsYGY9ISz/DabgVh0EvBg3rIIKBPRRkyQyc5P4FAHNSdTgjaDuILKLDyUD7Ggn0A+eGvMEysJmODIMu+nkwIXs4tUqBmVmOnHA71Pj5hQWyD4fLzBq6CXfUheklJTsEPnQxvH/iROFNGlF5cGpzfOtob930tmFryT0KFyiFujHxmeX6V2mtoMCgnjEos4OcKXzoTZcvjQEhAk1WyxspH/jhBuDDkRsphJ2Fv0DPzCKwvPvLiuHJYYphwCI25p1ECiw/KpSlhy/UNdhB5xhMmCI6l7nVnEYQ+3P31Z4XeFCKq5qMRQf/g2zNq6+vJyUhPqgJRrLB6w85Zxw/pU1edYbILKqeArhr6orxbDN7D/B+3vFzqnPr0Neozq373tadxvFv1Z0368JmA35Z3oV/un94uLxKv/6+f3eOjy7v3eX9fw==);strokeColor=none;spacingTop=-3;spacingBottom=-3;spacingLeft=-3;spacingRight=-3;points=[];labelBackgroundColor=none;rounded=0;html=1;whiteSpace=wrap;" parent="AOUFwX7jz5b8gHtSBeTc-66" vertex="1">
          <mxGeometry x="10" y="8" width="12" height="16" as="geometry" />
        </mxCell>
        <mxCell id="AOUFwX7jz5b8gHtSBeTc-72" style="vsdxID=5;fillColor=none;gradientColor=none;strokeColor=none;spacingTop=-3;spacingBottom=-3;spacingLeft=-3;spacingRight=-3;points=[];labelBackgroundColor=none;rounded=0;html=1;whiteSpace=wrap;" parent="1" vertex="1">
          <mxGeometry x="1198" y="-710" width="33" height="33" as="geometry" />
        </mxCell>
        <mxCell id="AOUFwX7jz5b8gHtSBeTc-73" style="vsdxID=6;fillColor=#5282ff;gradientColor=none;shape=stencil(jVLREkMwEPyavJq4q9LHjup/mKIyVUzQ8vfFUc2NDp7uLrfZzVqBfpWGZSxAVrUuHvFbRXUq8CIAVJ7GWtV9JTAQ6CeFju+6aPKI+jIcNofqWbyGG1rCOXKAgOyotSX1V9q9NZqWbTp2XetoH9B1JpBtomQLbNDBKrBFvoeGnJFenlcULIhpAGCh53wvXuebZUiT3mHsW+QT1+E0f56phbnAPGBK0VzaawB7PjcWNpTyH/TPCiMIo5BM5btz0xdL4BKVZZTX33Me0H5E4cbgAw==);strokeColor=none;spacingTop=-3;spacingBottom=-3;spacingLeft=-3;spacingRight=-3;points=[];labelBackgroundColor=none;rounded=0;html=1;whiteSpace=wrap;" parent="AOUFwX7jz5b8gHtSBeTc-72" vertex="1">
          <mxGeometry width="33" height="33" as="geometry" />
        </mxCell>
        <mxCell id="AOUFwX7jz5b8gHtSBeTc-74" style="vsdxID=7;fillColor=#FFFFFF;gradientColor=none;shape=stencil(nVbbcoIwEP0aXjO5GBIeO9b+h1OxMrXiILb27wtNgLAb3KhPsJ7N2WzOHpKp9eWwPZeZ5Je2qT/Ln2rXHjL1mklZnQ5lU7XdU6Y2mVrv66b8aOrraefez9se2T991d/9CjeXl0um+yTJf11A50y6yJvDH6tTgDc5s+Z+wvu1cQzCpxRMmYHEx3Lu3m/SvVvFhBwwEpZ2Ux5lxmIVwPxz85cIfbGK0E9LezLB+Zxd9xsF/BPIBzQnyKcMH1gFGx24ZxX6mDL05kfMMv+srwIt7cmMZZB/xefs4bmrcSsG8s/FgsQFUki8sHfxWIwoIUWMEqkhJkdJnod8RopQDEiIIqh4UYiCngMkRc3yFCVyatvUDMQ0CMY/IkA0/BEFzp0nRYCUV+mgKaNZMNgmDY9IYK/Q8IQsNS1jhp+VrhS1rH0RtAzLj0YTo8ifBxNfEFzKwwn3agFd1J2ibTLaCkofYIasxXY+09AwWGMDR4EE2lQQtCQRbHgFPJkUwyvQFyBmeJ1hMB7+BOUEg8U85oCLPEuOGC6y6IiW/jgiR7Q8zRIhOe4EOscUUzSAOuKKBl0LIrYIVJzii0j4BJ4YWRrfPUxX0n11PLobbfg/vMJ2IXf9VZs/);strokeColor=none;spacingTop=-3;spacingBottom=-3;spacingLeft=-3;spacingRight=-3;points=[];labelBackgroundColor=none;rounded=0;html=1;whiteSpace=wrap;" parent="AOUFwX7jz5b8gHtSBeTc-72" vertex="1">
          <mxGeometry x="7" y="8" width="16" height="16" as="geometry" />
        </mxCell>
        <mxCell id="AOUFwX7jz5b8gHtSBeTc-75" value="" style="shape=image;verticalLabelPosition=bottom;verticalAlign=top;imageAspect=0;image=data:image/svg+xml,PHN2ZyB4bWxucz0iaHR0cDovL3d3dy53My5vcmcvMjAwMC9zdmciIHdpZHRoPSIzMiIgaGVpZ2h0PSIzMiIgdmlld0JveD0iMCAwIDMyIDMyIiBmaWxsPSJub25lIj4mI3hhOzxwYXRoIGQ9Ik0wIDE2QzAgNy4xNjM0NCA3LjE2MzQ0IDAgMTYgMEMyNC44MzY2IDAgMzIgNy4xNjM0NCAzMiAxNkMzMiAyNC44MzY2IDI0LjgzNjYgMzIgMTYgMzJDNy4xNjM0NCAzMiAwIDI0LjgzNjYgMCAxNloiIGZpbGw9IiM1MjgyRkYiLz4mI3hhOzxwYXRoIGZpbGwtcnVsZT0iZXZlbm9kZCIgY2xpcC1ydWxlPSJldmVub2RkIiBkPSJNOC45OTg5OCAyMi44NThWMjEuMTM4QzguOTk4OTggMjEuMDU4IDkuMDYyOTggMjEuMDA1IDkuMTM5OTggMjEuMDA1SDE4Ljg1OUMxOC45MzYgMjEuMDA1IDE5IDIxLjA1OCAxOSAyMS4xMzhWMjIuODU4QzE5IDIyLjkzOCAxOC45MzYgMjMuMDA1IDE4Ljg1OSAyMy4wMDVIOS4xMzk5OEM5LjEwMTg3IDIzLjAwNCA5LjA2NTcxIDIyLjk4OCA5LjAzOTMyIDIyLjk2MDVDOS4wMTI5MyAyMi45MzI5IDguOTk4NDQgMjIuODk2MSA4Ljk5ODk4IDIyLjg1OFpNOC45OTk5OCAxOC44NThWMTcuMTM4QzguOTk5OTggMTcuMDcxIDkuMDYzOTggMTcuMDA1IDkuMTQwOTggMTcuMDA1SDIyLjg2QzIyLjkzNyAxNy4wMDUgMjMuMDAxIDE3LjA3MSAyMy4wMDEgMTcuMTM4VjE4Ljg1OEMyMy4wMDEgMTguOTM4IDIyLjkzNyAxOS4wMDUgMjIuODYgMTkuMDA1SDkuMTQwOThDOS4xMDI4NyAxOS4wMDQgOS4wNjY3MSAxOC45ODggOS4wNDAzMiAxOC45NjA1QzkuMDEzOTMgMTguOTMyOSA4Ljk5OTQ0IDE4Ljg5NjEgOC45OTk5OCAxOC44NThaTTguOTk4OTggMTQuODU4VjEzLjEzOEM4Ljk5ODk4IDEzLjA3MSA5LjA2Mjk4IDEzLjAwNCA5LjEzODk4IDEzLjAwNEgyMC44NkMyMC45MzYgMTMuMDA0IDIxIDEzLjA3MSAyMSAxMy4xMzhWMTQuODU4QzIxIDE0LjkzOCAyMC45MzYgMTUuMDA0IDIwLjg2IDE1LjAwNEg5LjEzODk4QzkuMTAxMjIgMTUuMDAyNyA5LjA2NTQ2IDE0Ljk4NjcgOS4wMzkzMSAxNC45NTk1QzkuMDEzMTcgMTQuOTMyMiA4Ljk5ODY5IDE0Ljg5NTggOC45OTg5OCAxNC44NThaTTguOTk5OTggMTAuODU4VjkuMTM4MDNDOC45OTk5OCA5LjA3MTAzIDkuMDYzOTggOS4wMDQwMyA5LjE0MDk4IDkuMDA0MDNIMjIuODU3QzIyLjkzNSA5LjAwNDAzIDIyLjk5OSA5LjA3MTAzIDIyLjk5OSA5LjEzNzAzVjEwLjg1N0MyMi45OTkgMTAuOTM3IDIyLjkzNSAxMS4wMDQgMjIuODU3IDExLjAwNEg5LjE0MDk4QzkuMTAyODcgMTEuMDAzIDkuMDY2NzEgMTAuOTg3IDkuMDQwMzIgMTAuOTU5NUM5LjAxMzkzIDEwLjkzMTkgOC45OTk0NCAxMC44OTUxIDguOTk5OTggMTAuODU3VjEwLjg1OFoiIGZpbGw9IndoaXRlIi8+JiN4YTs8L3N2Zz4=;" parent="1" vertex="1">
          <mxGeometry x="966" y="417.78" width="32" height="32" as="geometry" />
        </mxCell>
        <mxCell id="AOUFwX7jz5b8gHtSBeTc-77" style="vsdxID=5;fillColor=none;gradientColor=none;shape=stencil(vVPLEoIgFP0aljgEVuPa6j+YRGUica6U9vdhUKk4LWzG3X0cOPdcOIilTclrgShpDOiLaGVmSsQOiFJZlQKksRFiR8TSXIMoQN+qzOU175F9dNX3/obOnSP9CUoeLktIFL8KJ4flcLZN8NhtRJiDwxsf7VwhQHjAhniCDvNONhi04UbqakSuOBQCWy6cK16MWk0rRB2U/XRKVgMlSRwl+1nyhWI+s0+Xs4KYgNvPtlBKuJvVniX4En+9yfxWVpDx2yc2+Bosl0o5fw77U0PakjMzOz4B);strokeColor=#ff5958;spacingTop=-3;spacingBottom=-3;spacingLeft=-3;spacingRight=-3;points=[];labelBackgroundColor=none;rounded=0;html=1;whiteSpace=wrap;" parent="1" vertex="1">
          <mxGeometry x="401.57000000000005" y="417.78" width="252" height="104" as="geometry" />
        </mxCell>
        <mxCell id="AOUFwX7jz5b8gHtSBeTc-78" value="&lt;div style=&quot;font-size: 1px&quot;&gt;&lt;font style=&quot;font-size:22.58px;font-family:Arial;color:#000000;direction:ltr;letter-spacing:0px;line-height:120%;opacity:1&quot;&gt;Graphana&lt;br&gt;&lt;/font&gt;&lt;/div&gt;" style="verticalAlign=bottom;align=center;overflow=width;vsdxID=6;fillColor=none;gradientColor=none;strokeColor=none;spacingTop=-3;spacingBottom=-3;spacingLeft=-3;spacingRight=-3;points=[];labelBackgroundColor=none;rounded=0;html=1;whiteSpace=wrap;" parent="1" vertex="1">
          <mxGeometry x="401.57000000000005" y="484.78" width="252" height="28" as="geometry" />
        </mxCell>
        <mxCell id="AOUFwX7jz5b8gHtSBeTc-79" value="" style="shape=image;verticalLabelPosition=bottom;verticalAlign=top;imageAspect=0;aspect=fixed;image=data:image/svg+xml,PHN2ZyB4bWxucz0iaHR0cDovL3d3dy53My5vcmcvMjAwMC9zdmciIHdpZHRoPSIzMiIgaGVpZ2h0PSIzMiIgdmlld0JveD0iMCAwIDMyIDMyIiBmaWxsPSJub25lIj4mI3hhOzxwYXRoIGQ9Ik0wIDE2QzAgNy4xNjM0NCA3LjE2MzQ0IDAgMTYgMFYwQzI0LjgzNjYgMCAzMiA3LjE2MzQ0IDMyIDE2VjE2QzMyIDI0LjgzNjYgMjQuODM2NiAzMiAxNiAzMlYzMkM3LjE2MzQ0IDMyIDAgMjQuODM2NiAwIDE2VjE2WiIgZmlsbD0iIzUyODJGRiIvPiYjeGE7PHBhdGggZD0iTTkgMTBIOFYyMkgyNFYyMEg5VjEwWk0yMC41IDE1LjVMMTcgMTJMMTMuNSAxNS41TDEwIDEyVjE5SDI0VjEyTDIwLjUgMTUuNVoiIGZpbGw9IndoaXRlIi8+JiN4YTs8L3N2Zz4=;" parent="1" vertex="1">
          <mxGeometry x="511.57000000000005" y="439.78" width="32" height="32" as="geometry" />
        </mxCell>
        <mxCell id="AOUFwX7jz5b8gHtSBeTc-116" style="edgeStyle=orthogonalEdgeStyle;rounded=0;orthogonalLoop=1;jettySize=auto;html=1;" parent="1" source="AOUFwX7jz5b8gHtSBeTc-80" target="AOUFwX7jz5b8gHtSBeTc-77" edge="1">
          <mxGeometry relative="1" as="geometry" />
        </mxCell>
        <mxCell id="AOUFwX7jz5b8gHtSBeTc-80" style="vsdxID=5;fillColor=none;gradientColor=none;shape=stencil(vVPLEoIgFP0aljgEVuPa6j+YRGUica6U9vdhUKk4LWzG3X0cOPdcOIilTclrgShpDOiLaGVmSsQOiFJZlQKksRFiR8TSXIMoQN+qzOU175F9dNX3/obOnSP9CUoeLktIFL8KJ4flcLZN8NhtRJiDwxsf7VwhQHjAhniCDvNONhi04UbqakSuOBQCWy6cK16MWk0rRB2U/XRKVgMlSRwl+1nyhWI+s0+Xs4KYgNvPtlBKuJvVniX4En+9yfxWVpDx2yc2+Bosl0o5fw77U0PakjMzOz4B);strokeColor=#ff5958;spacingTop=-3;spacingBottom=-3;spacingLeft=-3;spacingRight=-3;points=[];labelBackgroundColor=none;rounded=0;html=1;whiteSpace=wrap;container=0;" parent="1" vertex="1">
          <mxGeometry x="390" y="-8.850000000000023" width="130" height="80" as="geometry" />
        </mxCell>
        <mxCell id="AOUFwX7jz5b8gHtSBeTc-81" value="&lt;div style=&quot;&quot;&gt;&lt;font face=&quot;Arial&quot;&gt;&lt;span style=&quot;font-size: 22.58px;&quot;&gt;Prometheus&lt;/span&gt;&lt;/font&gt;&lt;/div&gt;" style="verticalAlign=bottom;align=center;overflow=width;vsdxID=6;fillColor=none;gradientColor=none;strokeColor=none;spacingTop=-3;spacingBottom=-3;spacingLeft=-3;spacingRight=-3;points=[];labelBackgroundColor=none;rounded=0;html=1;whiteSpace=wrap;container=0;" parent="1" vertex="1">
          <mxGeometry x="390" y="40" width="130" height="25" as="geometry" />
        </mxCell>
        <mxCell id="AOUFwX7jz5b8gHtSBeTc-82" value="" style="shape=image;verticalLabelPosition=bottom;verticalAlign=top;imageAspect=0;image=data:image/svg+xml,PHN2ZyB4bWxucz0iaHR0cDovL3d3dy53My5vcmcvMjAwMC9zdmciIHdpZHRoPSIzMiIgaGVpZ2h0PSIzMiIgdmlld0JveD0iMCAwIDMyIDMyIiBmaWxsPSJub25lIj4mI3hhOzxwYXRoIGQ9Ik0wIDE2QzAgNy4xNjM0NCA3LjE2MzQ0IDAgMTYgMEMyNC44MzY2IDAgMzIgNy4xNjM0NCAzMiAxNkMzMiAyNC44MzY2IDI0LjgzNjYgMzIgMTYgMzJDNy4xNjM0NCAzMiAwIDI0LjgzNjYgMCAxNloiIGZpbGw9IiM1MjgyRkYiLz4mI3hhOzxwYXRoIGZpbGwtcnVsZT0iZXZlbm9kZCIgY2xpcC1ydWxlPSJldmVub2RkIiBkPSJNOC45OTg5OCAyMi44NThWMjEuMTM4QzguOTk4OTggMjEuMDU4IDkuMDYyOTggMjEuMDA1IDkuMTM5OTggMjEuMDA1SDE4Ljg1OUMxOC45MzYgMjEuMDA1IDE5IDIxLjA1OCAxOSAyMS4xMzhWMjIuODU4QzE5IDIyLjkzOCAxOC45MzYgMjMuMDA1IDE4Ljg1OSAyMy4wMDVIOS4xMzk5OEM5LjEwMTg3IDIzLjAwNCA5LjA2NTcxIDIyLjk4OCA5LjAzOTMyIDIyLjk2MDVDOS4wMTI5MyAyMi45MzI5IDguOTk4NDQgMjIuODk2MSA4Ljk5ODk4IDIyLjg1OFpNOC45OTk5OCAxOC44NThWMTcuMTM4QzguOTk5OTggMTcuMDcxIDkuMDYzOTggMTcuMDA1IDkuMTQwOTggMTcuMDA1SDIyLjg2QzIyLjkzNyAxNy4wMDUgMjMuMDAxIDE3LjA3MSAyMy4wMDEgMTcuMTM4VjE4Ljg1OEMyMy4wMDEgMTguOTM4IDIyLjkzNyAxOS4wMDUgMjIuODYgMTkuMDA1SDkuMTQwOThDOS4xMDI4NyAxOS4wMDQgOS4wNjY3MSAxOC45ODggOS4wNDAzMiAxOC45NjA1QzkuMDEzOTMgMTguOTMyOSA4Ljk5OTQ0IDE4Ljg5NjEgOC45OTk5OCAxOC44NThaTTguOTk4OTggMTQuODU4VjEzLjEzOEM4Ljk5ODk4IDEzLjA3MSA5LjA2Mjk4IDEzLjAwNCA5LjEzODk4IDEzLjAwNEgyMC44NkMyMC45MzYgMTMuMDA0IDIxIDEzLjA3MSAyMSAxMy4xMzhWMTQuODU4QzIxIDE0LjkzOCAyMC45MzYgMTUuMDA0IDIwLjg2IDE1LjAwNEg5LjEzODk4QzkuMTAxMjIgMTUuMDAyNyA5LjA2NTQ2IDE0Ljk4NjcgOS4wMzkzMSAxNC45NTk1QzkuMDEzMTcgMTQuOTMyMiA4Ljk5ODY5IDE0Ljg5NTggOC45OTg5OCAxNC44NThaTTguOTk5OTggMTAuODU4VjkuMTM4MDNDOC45OTk5OCA5LjA3MTAzIDkuMDYzOTggOS4wMDQwMyA5LjE0MDk4IDkuMDA0MDNIMjIuODU3QzIyLjkzNSA5LjAwNDAzIDIyLjk5OSA5LjA3MTAzIDIyLjk5OSA5LjEzNzAzVjEwLjg1N0MyMi45OTkgMTAuOTM3IDIyLjkzNSAxMS4wMDQgMjIuODU3IDExLjAwNEg5LjE0MDk4QzkuMTAyODcgMTEuMDAzIDkuMDY2NzEgMTAuOTg3IDkuMDQwMzIgMTAuOTU5NUM5LjAxMzkzIDEwLjkzMTkgOC45OTk0NCAxMC44OTUxIDguOTk5OTggMTAuODU3VjEwLjg1OFoiIGZpbGw9IndoaXRlIi8+JiN4YTs8L3N2Zz4=;" parent="1" vertex="1">
          <mxGeometry x="439" y="1.419999999999959" width="32" height="32" as="geometry" />
        </mxCell>
        <mxCell id="AOUFwX7jz5b8gHtSBeTc-89" style="vsdxID=5;fillColor=none;gradientColor=none;shape=stencil(vVPLEoIgFP0aljgEVuPa6j+YRGUica6U9vdhUKk4LWzG3X0cOPdcOIilTclrgShpDOiLaGVmSsQOiFJZlQKksRFiR8TSXIMoQN+qzOU175F9dNX3/obOnSP9CUoeLktIFL8KJ4flcLZN8NhtRJiDwxsf7VwhQHjAhniCDvNONhi04UbqakSuOBQCWy6cK16MWk0rRB2U/XRKVgMlSRwl+1nyhWI+s0+Xs4KYgNvPtlBKuJvVniX4En+9yfxWVpDx2yc2+Bosl0o5fw77U0PakjMzOz4B);strokeColor=#ff5958;spacingTop=-3;spacingBottom=-3;spacingLeft=-3;spacingRight=-3;points=[];labelBackgroundColor=none;rounded=0;html=1;whiteSpace=wrap;container=0;" parent="1" vertex="1">
          <mxGeometry x="530" y="-15" width="170" height="135" as="geometry" />
        </mxCell>
        <mxCell id="AOUFwX7jz5b8gHtSBeTc-90" value="&lt;div style=&quot;font-size: 1px&quot;&gt;&lt;font style=&quot;font-size:22.58px;font-family:Arial;color:#000000;direction:ltr;letter-spacing:0px;line-height:120%;opacity:1&quot;&gt;InsureTech&lt;/font&gt;&lt;/div&gt;&lt;div style=&quot;font-size: 1px&quot;&gt;&lt;font style=&quot;font-size:22.58px;font-family:Arial;color:#000000;direction:ltr;letter-spacing:0px;line-height:120%;opacity:1&quot;&gt;namespace (Cold Standby)&lt;/font&gt;&lt;/div&gt;" style="verticalAlign=bottom;align=center;overflow=width;vsdxID=6;fillColor=none;gradientColor=none;strokeColor=none;spacingTop=-3;spacingBottom=-3;spacingLeft=-3;spacingRight=-3;points=[];labelBackgroundColor=none;rounded=0;html=1;whiteSpace=wrap;container=0;" parent="1" vertex="1">
          <mxGeometry x="530" y="30" width="170" height="80" as="geometry" />
        </mxCell>
        <mxCell id="AOUFwX7jz5b8gHtSBeTc-94" value="" style="shape=image;verticalLabelPosition=bottom;verticalAlign=top;imageAspect=0;aspect=fixed;image=data:image/svg+xml,PHN2ZyB4bWxucz0iaHR0cDovL3d3dy53My5vcmcvMjAwMC9zdmciIHdpZHRoPSIzMiIgaGVpZ2h0PSIzMiIgdmlld0JveD0iMCAwIDMyIDMyIiBmaWxsPSJub25lIj4mI3hhOzxwYXRoIGQ9Ik0wIDE2QzAgNy4xNjM0NCA3LjE2MzQ0IDAgMTYgMFYwQzI0LjgzNjYgMCAzMiA3LjE2MzQ0IDMyIDE2VjE2QzMyIDI0LjgzNjYgMjQuODM2NiAzMiAxNiAzMlYzMkM3LjE2MzQ0IDMyIDAgMjQuODM2NiAwIDE2VjE2WiIgZmlsbD0iIzUyODJGRiIvPiYjeGE7PHBhdGggZD0iTTExLjk5NSAyNEw3LjAwMDk4IDE3LjczOEw4Ljc4MTk4IDkuOTI3TDE2IDYuNDUzTDIzLjIxOCA5LjkyOEwyNC45OTkgMTcuNzM5TDIwLjAwNSAyNEgxMS45OTVaTTIwIDEzLjE5NkwxNS45OTkgMTAuODk5TDEyIDEzLjE5NlYxOC4xTDE2IDIwLjQwMUwyMCAxOC4xVjEzLjE5NlpNMTguNzggMTMuODk2SDE4Ljc4N0wxNiAxNS40OTlMMTMuMjE0IDEzLjg5NUgxMy4yMTlMMTUuOTk5IDEyLjI5OUwxOC43OCAxMy44OTZaIiBmaWxsPSJ3aGl0ZSIvPiYjeGE7PC9zdmc+;container=0;" parent="1" vertex="1">
          <mxGeometry x="605.88" y="-5.2000000000000455" width="27.69545454545455" height="27.69545454545455" as="geometry" />
        </mxCell>
        <mxCell id="AOUFwX7jz5b8gHtSBeTc-95" value="" style="shape=image;verticalLabelPosition=bottom;verticalAlign=top;imageAspect=0;aspect=fixed;image=data:image/svg+xml,PHN2ZyB4bWxucz0iaHR0cDovL3d3dy53My5vcmcvMjAwMC9zdmciIHdpZHRoPSIzMiIgaGVpZ2h0PSIzMiIgdmlld0JveD0iMCAwIDMyIDMyIiBmaWxsPSJub25lIj4mI3hhOzxwYXRoIGQ9Ik0wIDE2QzAgNy4xNjM0NCA3LjE2MzQ0IDAgMTYgMFYwQzI0LjgzNjYgMCAzMiA3LjE2MzQ0IDMyIDE2VjE2QzMyIDI0LjgzNjYgMjQuODM2NiAzMiAxNiAzMlYzMkM3LjE2MzQ0IDMyIDAgMjQuODM2NiAwIDE2VjE2WiIgZmlsbD0iIzUyODJGRiIvPiYjeGE7PHBhdGggZD0iTTExLjk5NSAyNEw3LjAwMDk4IDE3LjczOEw4Ljc4MTk4IDkuOTI3TDE2IDYuNDUzTDIzLjIxOCA5LjkyOEwyNC45OTkgMTcuNzM5TDIwLjAwNSAyNEgxMS45OTVaTTIwIDEzLjE5NkwxNS45OTkgMTAuODk5TDEyIDEzLjE5NlYxOC4xTDE2IDIwLjQwMUwyMCAxOC4xVjEzLjE5NlpNMTguNzggMTMuODk2SDE4Ljc4N0wxNiAxNS40OTlMMTMuMjE0IDEzLjg5NUgxMy4yMTlMMTUuOTk5IDEyLjI5OUwxOC43OCAxMy44OTZaIiBmaWxsPSJ3aGl0ZSIvPiYjeGE7PC9zdmc+;container=0;" parent="1" vertex="1">
          <mxGeometry x="1005" y="-120" width="28.571428571428573" height="28.571428571428573" as="geometry" />
        </mxCell>
        <mxCell id="AOUFwX7jz5b8gHtSBeTc-96" style="vsdxID=5;fillColor=none;gradientColor=none;shape=stencil(vVPLEoIgFP0aljgEVuPa6j+YRGUica6U9vdhUKk4LWzG3X0cOPdcOIilTclrgShpDOiLaGVmSsQOiFJZlQKksRFiR8TSXIMoQN+qzOU175F9dNX3/obOnSP9CUoeLktIFL8KJ4flcLZN8NhtRJiDwxsf7VwhQHjAhniCDvNONhi04UbqakSuOBQCWy6cK16MWk0rRB2U/XRKVgMlSRwl+1nyhWI+s0+Xs4KYgNvPtlBKuJvVniX4En+9yfxWVpDx2yc2+Bosl0o5fw77U0PakjMzOz4B);strokeColor=#ff5958;spacingTop=-3;spacingBottom=-3;spacingLeft=-3;spacingRight=-3;points=[];labelBackgroundColor=none;rounded=0;html=1;whiteSpace=wrap;container=0;" parent="1" vertex="1">
          <mxGeometry x="940" y="-130" width="130" height="100" as="geometry" />
        </mxCell>
        <mxCell id="AOUFwX7jz5b8gHtSBeTc-97" value="&lt;div style=&quot;font-size: 1px&quot;&gt;&lt;font style=&quot;font-size:22.58px;font-family:Arial;color:#000000;direction:ltr;letter-spacing:0px;line-height:120%;opacity:1&quot;&gt;InsureTech&lt;/font&gt;&lt;/div&gt;&lt;div style=&quot;font-size: 1px&quot;&gt;&lt;font style=&quot;font-size:22.58px;font-family:Arial;color:#000000;direction:ltr;letter-spacing:0px;line-height:120%;opacity:1&quot;&gt;namespace&lt;/font&gt;&lt;/div&gt;" style="verticalAlign=bottom;align=center;overflow=width;vsdxID=6;fillColor=none;gradientColor=none;strokeColor=none;spacingTop=-3;spacingBottom=-3;spacingLeft=-3;spacingRight=-3;points=[];labelBackgroundColor=none;rounded=0;html=1;whiteSpace=wrap;container=0;" parent="1" vertex="1">
          <mxGeometry x="940" y="-90" width="130" height="54" as="geometry" />
        </mxCell>
        <mxCell id="AOUFwX7jz5b8gHtSBeTc-98" value="" style="group" parent="1" vertex="1" connectable="0">
          <mxGeometry x="770" y="-150" width="324.99999999999994" height="280" as="geometry" />
        </mxCell>
        <mxCell id="AOUFwX7jz5b8gHtSBeTc-99" value="" style="shape=image;verticalLabelPosition=bottom;verticalAlign=top;imageAspect=0;aspect=fixed;image=data:image/svg+xml,PHN2ZyB4bWxucz0iaHR0cDovL3d3dy53My5vcmcvMjAwMC9zdmciIHdpZHRoPSIzMiIgaGVpZ2h0PSIzMiIgdmlld0JveD0iMCAwIDMyIDMyIiBmaWxsPSJub25lIj4mI3hhOzxwYXRoIGQ9Ik0wIDE2QzAgNy4xNjM0NCA3LjE2MzQ0IDAgMTYgMFYwQzI0LjgzNjYgMCAzMiA3LjE2MzQ0IDMyIDE2VjE2QzMyIDI0LjgzNjYgMjQuODM2NiAzMiAxNiAzMlYzMkM3LjE2MzQ0IDMyIDAgMjQuODM2NiAwIDE2VjE2WiIgZmlsbD0iIzUyODJGRiIvPiYjeGE7PHBhdGggZD0iTTExLjk5NSAyNEw3LjAwMDk4IDE3LjczOEw4Ljc4MTk4IDkuOTI3TDE2IDYuNDUzTDIzLjIxOCA5LjkyOEwyNC45OTkgMTcuNzM5TDIwLjAwNSAyNEgxMS45OTVaTTIwIDEzLjE5NkwxNS45OTkgMTAuODk5TDEyIDEzLjE5NlYxOC4xTDE2IDIwLjQwMUwyMCAxOC4xVjEzLjE5NlpNMTguNzggMTMuODk2SDE4Ljc4N0wxNiAxNS40OTlMMTMuMjE0IDEzLjg5NUgxMy4yMTlMMTUuOTk5IDEyLjI5OUwxOC43OCAxMy44OTZaIiBmaWxsPSJ3aGl0ZSIvPiYjeGE7PC9zdmc+;container=0;" parent="AOUFwX7jz5b8gHtSBeTc-98" vertex="1">
          <mxGeometry x="43.99515151515152" y="86.14999999999996" width="27.69545454545455" height="27.69545454545455" as="geometry" />
        </mxCell>
        <mxCell id="AOUFwX7jz5b8gHtSBeTc-100" value="&lt;div style=&quot;font-size: 1px&quot;&gt;&lt;font style=&quot;font-size:22.58px;font-family:Arial;color:#000000;direction:ltr;letter-spacing:0px;line-height:120%;opacity:1&quot;&gt;Kubernetes&lt;br&gt;&lt;/font&gt;&lt;/div&gt;&lt;div style=&quot;font-size: 1px&quot;&gt;&lt;font style=&quot;font-size:22.58px;font-family:Arial;color:#000000;direction:ltr;letter-spacing:0px;line-height:120%;opacity:1&quot;&gt;cluster 2&lt;/font&gt;&lt;/div&gt;" style="verticalAlign=middle;align=center;overflow=width;vsdxID=7;fillColor=none;gradientColor=none;shape=stencil(nZBLDoAgDERP0z3SIyjew0SURgSD+Lu9kMZoXLhwN9O+tukAlrNpJg1SzDH4QW/URgNYgZTkjA4UkwJUgGXng+6DX1zLfmoymdXo17xh5zmRJ6Q42BWCfc2oJfdAr+Yv+AP9Cb7OJ3H/2JG1HNGz/84klThPVCc=);strokeColor=none;points=[];labelBackgroundColor=none;rounded=0;html=1;whiteSpace=wrap;container=0;" parent="AOUFwX7jz5b8gHtSBeTc-98" vertex="1">
          <mxGeometry x="9.696969696969697" width="116.36363636363637" height="86.13999999999999" as="geometry" />
        </mxCell>
        <mxCell id="AOUFwX7jz5b8gHtSBeTc-101" style="vsdxID=6;fillColor=none;gradientColor=none;shape=stencil(vVNdD4IgFP01POIQms1nq//BEpVF4q6U9u/DoFJxPdjm2/04cO65cBDL2oo3AlHSGtAX0cncVIgdEKWyrgRIYyPEjohlhQZRgr7VucsbPiCH6Krvww29O0eGE5Q8XJaSaPcqnByWw9k2wWNZRFMHhzc+SlwhQHhATDxBj3kvWwzacCN1PSFXHEqBLRcuFC8nrbYTognKfjol65GSNIn28SL5SjGf2efL2UBMwO1nWykl3M1mzxJ8ib/eZHkrG8j47RMbfA1WSKWcP8f9uSFtyZmZHZ8=);strokeColor=#5282ff;spacingTop=-3;spacingBottom=-3;spacingLeft=-3;spacingRight=-3;points=[];labelBackgroundColor=none;rounded=0;html=1;whiteSpace=wrap;container=0;" parent="AOUFwX7jz5b8gHtSBeTc-98" vertex="1">
          <mxGeometry x="-5.000000000000057" y="-10" width="330" height="290" as="geometry" />
        </mxCell>
        <mxCell id="AOUFwX7jz5b8gHtSBeTc-117" style="edgeStyle=orthogonalEdgeStyle;rounded=0;orthogonalLoop=1;jettySize=auto;html=1;" parent="1" source="AOUFwX7jz5b8gHtSBeTc-102" target="AOUFwX7jz5b8gHtSBeTc-77" edge="1">
          <mxGeometry relative="1" as="geometry">
            <Array as="points">
              <mxPoint x="835" y="170" />
              <mxPoint x="528" y="170" />
            </Array>
          </mxGeometry>
        </mxCell>
        <mxCell id="AOUFwX7jz5b8gHtSBeTc-102" style="vsdxID=5;fillColor=none;gradientColor=none;shape=stencil(vVPLEoIgFP0aljgEVuPa6j+YRGUica6U9vdhUKk4LWzG3X0cOPdcOIilTclrgShpDOiLaGVmSsQOiFJZlQKksRFiR8TSXIMoQN+qzOU175F9dNX3/obOnSP9CUoeLktIFL8KJ4flcLZN8NhtRJiDwxsf7VwhQHjAhniCDvNONhi04UbqakSuOBQCWy6cK16MWk0rRB2U/XRKVgMlSRwl+1nyhWI+s0+Xs4KYgNvPtlBKuJvVniX4En+9yfxWVpDx2yc2+Bosl0o5fw77U0PakjMzOz4B);strokeColor=#ff5958;spacingTop=-3;spacingBottom=-3;spacingLeft=-3;spacingRight=-3;points=[];labelBackgroundColor=none;rounded=0;html=1;whiteSpace=wrap;container=0;" parent="1" vertex="1">
          <mxGeometry x="770" y="-8.850000000000023" width="130" height="80" as="geometry" />
        </mxCell>
        <mxCell id="AOUFwX7jz5b8gHtSBeTc-103" value="&lt;div style=&quot;&quot;&gt;&lt;font face=&quot;Arial&quot;&gt;&lt;span style=&quot;font-size: 22.58px;&quot;&gt;Prometheus&lt;/span&gt;&lt;/font&gt;&lt;/div&gt;" style="verticalAlign=bottom;align=center;overflow=width;vsdxID=6;fillColor=none;gradientColor=none;strokeColor=none;spacingTop=-3;spacingBottom=-3;spacingLeft=-3;spacingRight=-3;points=[];labelBackgroundColor=none;rounded=0;html=1;whiteSpace=wrap;container=0;" parent="1" vertex="1">
          <mxGeometry x="770" y="40" width="130" height="25" as="geometry" />
        </mxCell>
        <mxCell id="AOUFwX7jz5b8gHtSBeTc-104" value="" style="shape=image;verticalLabelPosition=bottom;verticalAlign=top;imageAspect=0;image=data:image/svg+xml,PHN2ZyB4bWxucz0iaHR0cDovL3d3dy53My5vcmcvMjAwMC9zdmciIHdpZHRoPSIzMiIgaGVpZ2h0PSIzMiIgdmlld0JveD0iMCAwIDMyIDMyIiBmaWxsPSJub25lIj4mI3hhOzxwYXRoIGQ9Ik0wIDE2QzAgNy4xNjM0NCA3LjE2MzQ0IDAgMTYgMEMyNC44MzY2IDAgMzIgNy4xNjM0NCAzMiAxNkMzMiAyNC44MzY2IDI0LjgzNjYgMzIgMTYgMzJDNy4xNjM0NCAzMiAwIDI0LjgzNjYgMCAxNloiIGZpbGw9IiM1MjgyRkYiLz4mI3hhOzxwYXRoIGZpbGwtcnVsZT0iZXZlbm9kZCIgY2xpcC1ydWxlPSJldmVub2RkIiBkPSJNOC45OTg5OCAyMi44NThWMjEuMTM4QzguOTk4OTggMjEuMDU4IDkuMDYyOTggMjEuMDA1IDkuMTM5OTggMjEuMDA1SDE4Ljg1OUMxOC45MzYgMjEuMDA1IDE5IDIxLjA1OCAxOSAyMS4xMzhWMjIuODU4QzE5IDIyLjkzOCAxOC45MzYgMjMuMDA1IDE4Ljg1OSAyMy4wMDVIOS4xMzk5OEM5LjEwMTg3IDIzLjAwNCA5LjA2NTcxIDIyLjk4OCA5LjAzOTMyIDIyLjk2MDVDOS4wMTI5MyAyMi45MzI5IDguOTk4NDQgMjIuODk2MSA4Ljk5ODk4IDIyLjg1OFpNOC45OTk5OCAxOC44NThWMTcuMTM4QzguOTk5OTggMTcuMDcxIDkuMDYzOTggMTcuMDA1IDkuMTQwOTggMTcuMDA1SDIyLjg2QzIyLjkzNyAxNy4wMDUgMjMuMDAxIDE3LjA3MSAyMy4wMDEgMTcuMTM4VjE4Ljg1OEMyMy4wMDEgMTguOTM4IDIyLjkzNyAxOS4wMDUgMjIuODYgMTkuMDA1SDkuMTQwOThDOS4xMDI4NyAxOS4wMDQgOS4wNjY3MSAxOC45ODggOS4wNDAzMiAxOC45NjA1QzkuMDEzOTMgMTguOTMyOSA4Ljk5OTQ0IDE4Ljg5NjEgOC45OTk5OCAxOC44NThaTTguOTk4OTggMTQuODU4VjEzLjEzOEM4Ljk5ODk4IDEzLjA3MSA5LjA2Mjk4IDEzLjAwNCA5LjEzODk4IDEzLjAwNEgyMC44NkMyMC45MzYgMTMuMDA0IDIxIDEzLjA3MSAyMSAxMy4xMzhWMTQuODU4QzIxIDE0LjkzOCAyMC45MzYgMTUuMDA0IDIwLjg2IDE1LjAwNEg5LjEzODk4QzkuMTAxMjIgMTUuMDAyNyA5LjA2NTQ2IDE0Ljk4NjcgOS4wMzkzMSAxNC45NTk1QzkuMDEzMTcgMTQuOTMyMiA4Ljk5ODY5IDE0Ljg5NTggOC45OTg5OCAxNC44NThaTTguOTk5OTggMTAuODU4VjkuMTM4MDNDOC45OTk5OCA5LjA3MTAzIDkuMDYzOTggOS4wMDQwMyA5LjE0MDk4IDkuMDA0MDNIMjIuODU3QzIyLjkzNSA5LjAwNDAzIDIyLjk5OSA5LjA3MTAzIDIyLjk5OSA5LjEzNzAzVjEwLjg1N0MyMi45OTkgMTAuOTM3IDIyLjkzNSAxMS4wMDQgMjIuODU3IDExLjAwNEg5LjE0MDk4QzkuMTAyODcgMTEuMDAzIDkuMDY2NzEgMTAuOTg3IDkuMDQwMzIgMTAuOTU5NUM5LjAxMzkzIDEwLjkzMTkgOC45OTk0NCAxMC44OTUxIDguOTk5OTggMTAuODU3VjEwLjg1OFoiIGZpbGw9IndoaXRlIi8+JiN4YTs8L3N2Zz4=;" parent="1" vertex="1">
          <mxGeometry x="819" y="1.419999999999959" width="32" height="32" as="geometry" />
        </mxCell>
        <mxCell id="AOUFwX7jz5b8gHtSBeTc-105" style="vsdxID=5;fillColor=none;gradientColor=none;shape=stencil(vVPLEoIgFP0aljgEVuPa6j+YRGUica6U9vdhUKk4LWzG3X0cOPdcOIilTclrgShpDOiLaGVmSsQOiFJZlQKksRFiR8TSXIMoQN+qzOU175F9dNX3/obOnSP9CUoeLktIFL8KJ4flcLZN8NhtRJiDwxsf7VwhQHjAhniCDvNONhi04UbqakSuOBQCWy6cK16MWk0rRB2U/XRKVgMlSRwl+1nyhWI+s0+Xs4KYgNvPtlBKuJvVniX4En+9yfxWVpDx2yc2+Bosl0o5fw77U0PakjMzOz4B);strokeColor=#ff5958;spacingTop=-3;spacingBottom=-3;spacingLeft=-3;spacingRight=-3;points=[];labelBackgroundColor=none;rounded=0;html=1;whiteSpace=wrap;container=0;" parent="1" vertex="1">
          <mxGeometry x="910" y="-15" width="170" height="135" as="geometry" />
        </mxCell>
        <mxCell id="AOUFwX7jz5b8gHtSBeTc-106" value="&lt;div style=&quot;font-size: 1px&quot;&gt;&lt;font style=&quot;font-size:22.58px;font-family:Arial;color:#000000;direction:ltr;letter-spacing:0px;line-height:120%;opacity:1&quot;&gt;InsureTech&lt;/font&gt;&lt;/div&gt;&lt;div style=&quot;font-size: 1px&quot;&gt;&lt;font style=&quot;font-size:22.58px;font-family:Arial;color:#000000;direction:ltr;letter-spacing:0px;line-height:120%;opacity:1&quot;&gt;namespace (Cold Standby)&lt;/font&gt;&lt;/div&gt;" style="verticalAlign=bottom;align=center;overflow=width;vsdxID=6;fillColor=none;gradientColor=none;strokeColor=none;spacingTop=-3;spacingBottom=-3;spacingLeft=-3;spacingRight=-3;points=[];labelBackgroundColor=none;rounded=0;html=1;whiteSpace=wrap;container=0;" parent="1" vertex="1">
          <mxGeometry x="910" y="30" width="170" height="80" as="geometry" />
        </mxCell>
        <mxCell id="AOUFwX7jz5b8gHtSBeTc-107" value="" style="shape=image;verticalLabelPosition=bottom;verticalAlign=top;imageAspect=0;aspect=fixed;image=data:image/svg+xml,PHN2ZyB4bWxucz0iaHR0cDovL3d3dy53My5vcmcvMjAwMC9zdmciIHdpZHRoPSIzMiIgaGVpZ2h0PSIzMiIgdmlld0JveD0iMCAwIDMyIDMyIiBmaWxsPSJub25lIj4mI3hhOzxwYXRoIGQ9Ik0wIDE2QzAgNy4xNjM0NCA3LjE2MzQ0IDAgMTYgMFYwQzI0LjgzNjYgMCAzMiA3LjE2MzQ0IDMyIDE2VjE2QzMyIDI0LjgzNjYgMjQuODM2NiAzMiAxNiAzMlYzMkM3LjE2MzQ0IDMyIDAgMjQuODM2NiAwIDE2VjE2WiIgZmlsbD0iIzUyODJGRiIvPiYjeGE7PHBhdGggZD0iTTExLjk5NSAyNEw3LjAwMDk4IDE3LjczOEw4Ljc4MTk4IDkuOTI3TDE2IDYuNDUzTDIzLjIxOCA5LjkyOEwyNC45OTkgMTcuNzM5TDIwLjAwNSAyNEgxMS45OTVaTTIwIDEzLjE5NkwxNS45OTkgMTAuODk5TDEyIDEzLjE5NlYxOC4xTDE2IDIwLjQwMUwyMCAxOC4xVjEzLjE5NlpNMTguNzggMTMuODk2SDE4Ljc4N0wxNiAxNS40OTlMMTMuMjE0IDEzLjg5NUgxMy4yMTlMMTUuOTk5IDEyLjI5OUwxOC43OCAxMy44OTZaIiBmaWxsPSJ3aGl0ZSIvPiYjeGE7PC9zdmc+;container=0;" parent="1" vertex="1">
          <mxGeometry x="985.88" y="-5.2000000000000455" width="27.69545454545455" height="27.69545454545455" as="geometry" />
        </mxCell>
        <mxCell id="AOUFwX7jz5b8gHtSBeTc-44" value="" style="shape=image;verticalLabelPosition=bottom;verticalAlign=top;imageAspect=0;aspect=fixed;image=data:image/svg+xml,PHN2ZyB4bWxucz0iaHR0cDovL3d3dy53My5vcmcvMjAwMC9zdmciIHdpZHRoPSIzMiIgaGVpZ2h0PSIzMiIgdmlld0JveD0iMCAwIDMyIDMyIiBmaWxsPSJub25lIj4mI3hhOzxwYXRoIGQ9Ik0wIDE2QzAgNy4xNjM0NCA3LjE2MzQ0IDAgMTYgMFYwQzI0LjgzNjYgMCAzMiA3LjE2MzQ0IDMyIDE2VjE2QzMyIDI0LjgzNjYgMjQuODM2NiAzMiAxNiAzMlYzMkM3LjE2MzQ0IDMyIDAgMjQuODM2NiAwIDE2VjE2WiIgZmlsbD0iIzUyODJGRiIvPiYjeGE7PHBhdGggZD0iTTI0IDE1VjEzSDIyVjExQzIyIDEwLjQgMjEuNiAxMCAyMSAxMEgxOVY4SDE3VjEwSDE1VjhIMTNWMTBIMTFDMTAuNCAxMCAxMCAxMC40IDEwIDExVjEzSDhWMTVIMTBWMTdIOFYxOUgxMFYyMUMxMCAyMS42IDEwLjQgMjIgMTEgMjJIMTNWMjRIMTVWMjJIMTdWMjRIMTlWMjJIMjFDMjEuNiAyMiAyMiAyMS42IDIyIDIxVjE5SDI0VjE3SDIyVjE1SDI0Wk0xOSAxOUgxM1YxM0gxOVYxOVoiIGZpbGw9IndoaXRlIi8+JiN4YTs8L3N2Zz4=;container=0;" parent="1" vertex="1">
          <mxGeometry x="774.1527272727274" y="190.00036122952645" width="37.63636363636363" height="37.63636363636363" as="geometry" />
        </mxCell>
        <mxCell id="AOUFwX7jz5b8gHtSBeTc-45" value="&lt;div style=&quot;font-size: 1px&quot;&gt;&lt;span style=&quot;font-family: Arial; font-size: 22.58px; letter-spacing: 0px; background-color: transparent;&quot;&gt;&lt;br&gt;&lt;/span&gt;&lt;/div&gt;&lt;div style=&quot;font-size: 1px&quot;&gt;&lt;span style=&quot;font-family: Arial; font-size: 22.58px; letter-spacing: 0px; background-color: transparent;&quot;&gt;&lt;br&gt;&lt;/span&gt;&lt;/div&gt;&lt;div style=&quot;font-size: 1px&quot;&gt;&lt;span style=&quot;font-family: Arial; font-size: 22.58px; letter-spacing: 0px; background-color: transparent;&quot;&gt;VM&lt;/span&gt;&lt;/div&gt;" style="verticalAlign=middle;align=center;overflow=width;vsdxID=7;fillColor=none;gradientColor=none;shape=stencil(nZBLDoAgDERP0z3SIyjew0SURgSD+Lu9kMZoXLhwN9O+tukAlrNpJg1SzDH4QW/URgNYgZTkjA4UkwJUgGXng+6DX1zLfmoymdXo17xh5zmRJ6Q42BWCfc2oJfdAr+Yv+AP9Cb7OJ3H/2JG1HNGz/84klThPVCc=);strokeColor=none;points=[];labelBackgroundColor=none;rounded=0;html=1;whiteSpace=wrap;container=0;" parent="1" vertex="1">
          <mxGeometry x="723" y="170" width="139.94" height="100" as="geometry" />
        </mxCell>
        <mxCell id="AOUFwX7jz5b8gHtSBeTc-115" style="edgeStyle=orthogonalEdgeStyle;rounded=0;orthogonalLoop=1;jettySize=auto;html=1;" parent="1" source="AOUFwX7jz5b8gHtSBeTc-101" target="AOUFwX7jz5b8gHtSBeTc-43" edge="1">
          <mxGeometry relative="1" as="geometry" />
        </mxCell>
        <mxCell id="AOUFwX7jz5b8gHtSBeTc-119" value="&lt;div style=&quot;font-size: 1px&quot;&gt;&lt;font style=&quot;font-size:22.58px;font-family:Arial;color:#000000;direction:ltr;letter-spacing:0px;line-height:120%;opacity:1&quot;&gt;Зона доступности 2&lt;br&gt;&lt;/font&gt;&lt;/div&gt;" style="verticalAlign=bottom;align=center;overflow=width;vsdxID=5;fillColor=#e3ebff;gradientColor=none;shape=stencil(vVNBDsIgEHwNRwxCjHqu+g9iaUtEaBa09fdSwdpi9dBDb8vOwOwsGcQyW/FaIEqsA3MRjcxdhdgBUSp1JUA6XyF2RCwrDIgSzE3n4VzzjtlVV3PvXmjDPdLdoOQRTrvtavNqnAKXw9mDELkBIhDJaxrJZIy/YRLfbjFvpcVgHHfS6JGu4lAK7GVwoXg5gmwjRP3VjoMpqQcm9tPKs0z0Y6crWcBHqt0PN8tJspXFfmNKdpaBH8tYwML/VPjiE6dCKhXSOMTT+PlWiC47PgE=);strokeColor=none;spacingTop=-3;spacingBottom=-3;spacingLeft=-3;spacingRight=-3;points=[];labelBackgroundColor=none;rounded=0;html=1;whiteSpace=wrap;container=0;" parent="1" vertex="1">
          <mxGeometry x="1290" y="-435" width="800" height="1085" as="geometry" />
        </mxCell>
        <mxCell id="AOUFwX7jz5b8gHtSBeTc-120" value="" style="shape=image;verticalLabelPosition=bottom;verticalAlign=top;imageAspect=0;aspect=fixed;image=data:image/svg+xml,PHN2ZyB4bWxucz0iaHR0cDovL3d3dy53My5vcmcvMjAwMC9zdmciIHdpZHRoPSIzMiIgaGVpZ2h0PSIzMiIgdmlld0JveD0iMCAwIDMyIDMyIiBmaWxsPSJub25lIj4mI3hhOzxwYXRoIGQ9Ik0wIDE2QzAgNy4xNjM0NCA3LjE2MzQ0IDAgMTYgMFYwQzI0LjgzNjYgMCAzMiA3LjE2MzQ0IDMyIDE2VjE2QzMyIDI0LjgzNjYgMjQuODM2NiAzMiAxNiAzMlYzMkM3LjE2MzQ0IDMyIDAgMjQuODM2NiAwIDE2VjE2WiIgZmlsbD0iIzUyODJGRiIvPiYjeGE7PHBhdGggZD0iTTExLjk5NSAyNEw3LjAwMDk4IDE3LjczOEw4Ljc4MTk4IDkuOTI3TDE2IDYuNDUzTDIzLjIxOCA5LjkyOEwyNC45OTkgMTcuNzM5TDIwLjAwNSAyNEgxMS45OTVaTTIwIDEzLjE5NkwxNS45OTkgMTAuODk5TDEyIDEzLjE5NlYxOC4xTDE2IDIwLjQwMUwyMCAxOC4xVjEzLjE5NlpNMTguNzggMTMuODk2SDE4Ljc4N0wxNiAxNS40OTlMMTMuMjE0IDEzLjg5NUgxMy4yMTlMMTUuOTk5IDEyLjI5OUwxOC43OCAxMy44OTZaIiBmaWxsPSJ3aGl0ZSIvPiYjeGE7PC9zdmc+;container=0;" parent="1" vertex="1">
          <mxGeometry x="1575" y="-120" width="28.571428571428573" height="28.571428571428573" as="geometry" />
        </mxCell>
        <mxCell id="AOUFwX7jz5b8gHtSBeTc-121" style="vsdxID=5;fillColor=none;gradientColor=none;shape=stencil(vVPLEoIgFP0aljgEVuPa6j+YRGUica6U9vdhUKk4LWzG3X0cOPdcOIilTclrgShpDOiLaGVmSsQOiFJZlQKksRFiR8TSXIMoQN+qzOU175F9dNX3/obOnSP9CUoeLktIFL8KJ4flcLZN8NhtRJiDwxsf7VwhQHjAhniCDvNONhi04UbqakSuOBQCWy6cK16MWk0rRB2U/XRKVgMlSRwl+1nyhWI+s0+Xs4KYgNvPtlBKuJvVniX4En+9yfxWVpDx2yc2+Bosl0o5fw77U0PakjMzOz4B);strokeColor=#ff5958;spacingTop=-3;spacingBottom=-3;spacingLeft=-3;spacingRight=-3;points=[];labelBackgroundColor=none;rounded=0;html=1;whiteSpace=wrap;container=0;" parent="1" vertex="1">
          <mxGeometry x="1510" y="-130" width="130" height="100" as="geometry" />
        </mxCell>
        <mxCell id="AOUFwX7jz5b8gHtSBeTc-122" value="&lt;div style=&quot;font-size: 1px&quot;&gt;&lt;font style=&quot;font-size:22.58px;font-family:Arial;color:#000000;direction:ltr;letter-spacing:0px;line-height:120%;opacity:1&quot;&gt;InsureTech&lt;/font&gt;&lt;/div&gt;&lt;div style=&quot;font-size: 1px&quot;&gt;&lt;font style=&quot;font-size:22.58px;font-family:Arial;color:#000000;direction:ltr;letter-spacing:0px;line-height:120%;opacity:1&quot;&gt;namespace&lt;/font&gt;&lt;/div&gt;" style="verticalAlign=bottom;align=center;overflow=width;vsdxID=6;fillColor=none;gradientColor=none;strokeColor=none;spacingTop=-3;spacingBottom=-3;spacingLeft=-3;spacingRight=-3;points=[];labelBackgroundColor=none;rounded=0;html=1;whiteSpace=wrap;container=0;" parent="1" vertex="1">
          <mxGeometry x="1510" y="-90" width="130" height="54" as="geometry" />
        </mxCell>
        <mxCell id="AOUFwX7jz5b8gHtSBeTc-123" value="" style="group" parent="1" vertex="1" connectable="0">
          <mxGeometry x="1340" y="-150" width="320" height="133.71" as="geometry" />
        </mxCell>
        <mxCell id="AOUFwX7jz5b8gHtSBeTc-124" value="" style="shape=image;verticalLabelPosition=bottom;verticalAlign=top;imageAspect=0;aspect=fixed;image=data:image/svg+xml,PHN2ZyB4bWxucz0iaHR0cDovL3d3dy53My5vcmcvMjAwMC9zdmciIHdpZHRoPSIzMiIgaGVpZ2h0PSIzMiIgdmlld0JveD0iMCAwIDMyIDMyIiBmaWxsPSJub25lIj4mI3hhOzxwYXRoIGQ9Ik0wIDE2QzAgNy4xNjM0NCA3LjE2MzQ0IDAgMTYgMFYwQzI0LjgzNjYgMCAzMiA3LjE2MzQ0IDMyIDE2VjE2QzMyIDI0LjgzNjYgMjQuODM2NiAzMiAxNiAzMlYzMkM3LjE2MzQ0IDMyIDAgMjQuODM2NiAwIDE2VjE2WiIgZmlsbD0iIzUyODJGRiIvPiYjeGE7PHBhdGggZD0iTTExLjk5NSAyNEw3LjAwMDk4IDE3LjczOEw4Ljc4MTk4IDkuOTI3TDE2IDYuNDUzTDIzLjIxOCA5LjkyOEwyNC45OTkgMTcuNzM5TDIwLjAwNSAyNEgxMS45OTVaTTIwIDEzLjE5NkwxNS45OTkgMTAuODk5TDEyIDEzLjE5NlYxOC4xTDE2IDIwLjQwMUwyMCAxOC4xVjEzLjE5NlpNMTguNzggMTMuODk2SDE4Ljc4N0wxNiAxNS40OTlMMTMuMjE0IDEzLjg5NUgxMy4yMTlMMTUuOTk5IDEyLjI5OUwxOC43OCAxMy44OTZaIiBmaWxsPSJ3aGl0ZSIvPiYjeGE7PC9zdmc+;container=0;" parent="AOUFwX7jz5b8gHtSBeTc-123" vertex="1">
          <mxGeometry x="43.99515151515152" y="86.14999999999996" width="27.69545454545455" height="27.69545454545455" as="geometry" />
        </mxCell>
        <mxCell id="AOUFwX7jz5b8gHtSBeTc-125" value="&lt;div style=&quot;font-size: 1px&quot;&gt;&lt;font style=&quot;font-size:22.58px;font-family:Arial;color:#000000;direction:ltr;letter-spacing:0px;line-height:120%;opacity:1&quot;&gt;Kubernetes&lt;br&gt;&lt;/font&gt;&lt;/div&gt;&lt;div style=&quot;font-size: 1px&quot;&gt;&lt;font style=&quot;font-size:22.58px;font-family:Arial;color:#000000;direction:ltr;letter-spacing:0px;line-height:120%;opacity:1&quot;&gt;cluster 1&lt;/font&gt;&lt;/div&gt;" style="verticalAlign=middle;align=center;overflow=width;vsdxID=7;fillColor=none;gradientColor=none;shape=stencil(nZBLDoAgDERP0z3SIyjew0SURgSD+Lu9kMZoXLhwN9O+tukAlrNpJg1SzDH4QW/URgNYgZTkjA4UkwJUgGXng+6DX1zLfmoymdXo17xh5zmRJ6Q42BWCfc2oJfdAr+Yv+AP9Cb7OJ3H/2JG1HNGz/84klThPVCc=);strokeColor=none;points=[];labelBackgroundColor=none;rounded=0;html=1;whiteSpace=wrap;container=0;" parent="AOUFwX7jz5b8gHtSBeTc-123" vertex="1">
          <mxGeometry x="9.696969696969697" width="116.36363636363637" height="86.13999999999999" as="geometry" />
        </mxCell>
        <mxCell id="AOUFwX7jz5b8gHtSBeTc-126" style="edgeStyle=orthogonalEdgeStyle;rounded=0;orthogonalLoop=1;jettySize=auto;html=1;" parent="1" source="AOUFwX7jz5b8gHtSBeTc-127" target="AOUFwX7jz5b8gHtSBeTc-140" edge="1">
          <mxGeometry relative="1" as="geometry" />
        </mxCell>
        <mxCell id="AOUFwX7jz5b8gHtSBeTc-127" style="vsdxID=6;fillColor=none;gradientColor=none;shape=stencil(vVNdD4IgFP01POIQms1nq//BEpVF4q6U9u/DoFJxPdjm2/04cO65cBDL2oo3AlHSGtAX0cncVIgdEKWyrgRIYyPEjohlhQZRgr7VucsbPiCH6Krvww29O0eGE5Q8XJaSaPcqnByWw9k2wWNZRFMHhzc+SlwhQHhATDxBj3kvWwzacCN1PSFXHEqBLRcuFC8nrbYTognKfjol65GSNIn28SL5SjGf2efL2UBMwO1nWykl3M1mzxJ8ib/eZHkrG8j47RMbfA1WSKWcP8f9uSFtyZmZHZ8=);strokeColor=#5282ff;spacingTop=-3;spacingBottom=-3;spacingLeft=-3;spacingRight=-3;points=[];labelBackgroundColor=none;rounded=0;html=1;whiteSpace=wrap;container=0;" parent="1" vertex="1">
          <mxGeometry x="1330" y="-160" width="330" height="290" as="geometry" />
        </mxCell>
        <mxCell id="AOUFwX7jz5b8gHtSBeTc-128" style="vsdxID=5;fillColor=none;gradientColor=none;strokeColor=none;shadow=1;spacingTop=-3;spacingBottom=-3;spacingLeft=-3;spacingRight=-3;points=[];labelBackgroundColor=none;rounded=0;html=1;whiteSpace=wrap;" parent="1" vertex="1">
          <mxGeometry x="1569.92" y="-410" width="524" height="169" as="geometry" />
        </mxCell>
        <mxCell id="AOUFwX7jz5b8gHtSBeTc-129" value="&lt;div&gt;&lt;font style=&quot;font-size: 18px;&quot;&gt;&lt;br&gt;&lt;/font&gt;&lt;/div&gt;&lt;font style=&quot;font-size: 18px;&quot;&gt;Data Center Load Balancer&lt;/font&gt;&lt;div&gt;&lt;font style=&quot;font-size: 18px;&quot;&gt;with DDos protection&lt;/font&gt;&lt;/div&gt;&lt;div&gt;&lt;font style=&quot;font-size: 18px;&quot;&gt;[NGINX]&lt;/font&gt;&lt;/div&gt;" style="vsdxID=6;fillColor=#ffffff;gradientColor=none;shape=stencil(vVNhD4IgEP01fNQRLJefzf4HS1QWgTsp7d8HoaVRa7PNb8fdO969g4do1tas4Yjg1oA+8U4UpkZ0jwgRquYgjI0QzRHNSg28An1RhT83zCFddNZXd0Pv+7DrIPjmTymOE/rIHDyYwdFWYQAnMd56PIwNMd35TAAZEBs8UPQR60UbgTbMCK1m9JJBxSNLFpWSVbNS23HeBOlhPCnUREtK4/Qz+VI1z+GD/awgJyAfp1uqJtzPak8TfIv/3uXLYlYQ8sMvNng5rRRSeqNO6+/OtCnvaprfAQ==);strokeColor=none;shadow=1;spacingTop=-3;spacingBottom=-3;spacingLeft=-3;spacingRight=-3;points=[];labelBackgroundColor=none;rounded=0;html=1;whiteSpace=wrap;" parent="AOUFwX7jz5b8gHtSBeTc-128" vertex="1">
          <mxGeometry width="262" height="169" as="geometry" />
        </mxCell>
        <mxCell id="AOUFwX7jz5b8gHtSBeTc-130" style="vsdxID=5;fillColor=none;gradientColor=none;strokeColor=none;spacingTop=-3;spacingBottom=-3;spacingLeft=-3;spacingRight=-3;points=[];labelBackgroundColor=none;rounded=0;html=1;whiteSpace=wrap;" parent="AOUFwX7jz5b8gHtSBeTc-128" vertex="1">
          <mxGeometry x="114.49999999999994" y="20" width="33" height="33" as="geometry" />
        </mxCell>
        <mxCell id="AOUFwX7jz5b8gHtSBeTc-131" style="vsdxID=6;fillColor=#5282ff;gradientColor=none;shape=stencil(jZLdDoIwDIWfZrdkawN4a1DfgwjIIoKZoPD2Al3ANhLlqj+n65dDFSaPMr3nCvSjdc01f9msLRUeFICty9zZdowUHhUmRePyi2u6OqP8nk7KKbo1z+mFnuZCPY2AHig1mvITac+dI7GhdhwHkcE41P4zftjwad2DKAzAH/AylDJkVDOF3n8BWSd8ASDAXWRgQYs5yRa5b2sOFAqeXzjLdg4l3BBebCIjl//riXBEWC2Xcpb1z204wA5jXl/Z+u87GoP1AAtbVXS/n315sGOJjh2Pbw==);strokeColor=none;spacingTop=-3;spacingBottom=-3;spacingLeft=-3;spacingRight=-3;points=[];labelBackgroundColor=none;rounded=0;html=1;whiteSpace=wrap;" parent="AOUFwX7jz5b8gHtSBeTc-130" vertex="1">
          <mxGeometry width="33" height="33" as="geometry" />
        </mxCell>
        <mxCell id="AOUFwX7jz5b8gHtSBeTc-132" style="vsdxID=7;fillColor=#FFFFFF;gradientColor=none;shape=stencil(nVjbbtswDP2avAriRaT4OOzyH8WarcG6Zki7rf370YvjRJRnJwuQwHF0osPbIeUNvX9+uPux3WB+fjnsv21/7+5fHjb0YYO4e3rYHnYvfrWhjxt6/2V/2H497H8+3R+//7gbVg5X3/e/hn94PeI0J64DCvPb8U6FhOXvnU9HwOPuaREgJUFdAPAq4PPPw5ETjBBLZMqoAmzCIxjOaD0SzK84cZaKmZihGJ52G38UTihVSx5fMGJpxFKqNCLGW4LpwgP5XWdTlcTW2tRAepNqTUJFTJAVSMyCUZxo4NiaZTnVjJWxuGHGEwhnPDFSt5IqB2tad8+YY3YGXRXTHtBlTXQA5Nya7B4pncGaQAwz1FKqSmuum2YVMBhcnam0Bp+2OpvbJRgl4FqcQ1aoIRZhH5zynkCVsoi/S0utsYX6QqFZJ81E4opybOuXxcneUr89oHjuLcQaNAk2AF34+351kUU++f8XM6XbqNwMuM2RXLzGbwFADXxinv6FsNdDESfjAnDK9FNRQepEo6DLnRkykpqGRJ3cO6VpcQ5R/laz1LcIerFS/d4EBuUFZcklB0U/See51moCAKSSTSGqXg7171yw5b9W/YMWV28Jmbl2SpxbKkbJpHImQGYOVDze0Z3Deg1y1HeTyGh+l1OQvRt2DW/WBGyydslFXYC7gM2GAMIGOEXX5dpblNWcCQObc3ipTx+arYSZnLvM039Uzxpgpfz7rO4AN6U1h1RazGrS6KWZqE2L/jO3Lza5Jr3d/K7dzuR3Wau3xewuvolPPq5t40sCQ0zeqL1VEymxtgy9XeS+BCGdZry3s8ihrrHMSf1TjF1uKbL02OWY9o7gApmdmtOP1DRZ7t2XU4ipr5NILQybPlyEjr3cJX0CqHATwFm1peKsiixmvnl1FfBBUXyapeAtt928ZU0jN4dKMI85DzMeKBIEx1UftKJiuAvKJoZ0VcM0VSQuUgUlUnR16GRMBj2nYjpQpI6WxWgOR5tYDL6MNkvhdNAkkbOY2XG1kJ+FKmvOqp0lANZ1CFezSiIKPlATxMaladDPbmTthbmsDgO9zq5kWw9YGVn9cCTL66PDHFF8CPK8wVyw9VedOT8Oxx02dpEy8H4bxbmaV2BXy6IpOMvo9i5maz1mfp6DiJ5s+efMeB4dOlMuR9OrzypXHD384vzg4cvu8fH43OLy9/igwm8dH3LQxz8=);strokeColor=none;spacingTop=-3;spacingBottom=-3;spacingLeft=-3;spacingRight=-3;points=[];labelBackgroundColor=none;rounded=0;html=1;whiteSpace=wrap;" parent="AOUFwX7jz5b8gHtSBeTc-130" vertex="1">
          <mxGeometry x="7" y="8" width="18" height="16" as="geometry" />
        </mxCell>
        <mxCell id="AOUFwX7jz5b8gHtSBeTc-133" style="edgeStyle=orthogonalEdgeStyle;rounded=0;orthogonalLoop=1;jettySize=auto;html=1;" parent="1" source="AOUFwX7jz5b8gHtSBeTc-129" target="AOUFwX7jz5b8gHtSBeTc-127" edge="1">
          <mxGeometry relative="1" as="geometry" />
        </mxCell>
        <mxCell id="AOUFwX7jz5b8gHtSBeTc-134" style="edgeStyle=orthogonalEdgeStyle;rounded=0;orthogonalLoop=1;jettySize=auto;html=1;entryX=0.427;entryY=0.009;entryDx=0;entryDy=0;entryPerimeter=0;" parent="1" source="AOUFwX7jz5b8gHtSBeTc-129" target="AOUFwX7jz5b8gHtSBeTc-172" edge="1">
          <mxGeometry relative="1" as="geometry">
            <mxPoint x="1890.034482758621" y="-150" as="targetPoint" />
          </mxGeometry>
        </mxCell>
        <mxCell id="AOUFwX7jz5b8gHtSBeTc-135" style="edgeStyle=orthogonalEdgeStyle;rounded=0;orthogonalLoop=1;jettySize=auto;html=1;" parent="1" source="AOUFwX7jz5b8gHtSBeTc-136" target="AOUFwX7jz5b8gHtSBeTc-150" edge="1">
          <mxGeometry relative="1" as="geometry" />
        </mxCell>
        <mxCell id="AOUFwX7jz5b8gHtSBeTc-136" style="vsdxID=5;fillColor=none;gradientColor=none;shape=stencil(vVPLEoIgFP0aljgEVuPa6j+YRGUica6U9vdhUKk4LWzG3X0cOPdcOIilTclrgShpDOiLaGVmSsQOiFJZlQKksRFiR8TSXIMoQN+qzOU175F9dNX3/obOnSP9CUoeLktIFL8KJ4flcLZN8NhtRJiDwxsf7VwhQHjAhniCDvNONhi04UbqakSuOBQCWy6cK16MWk0rRB2U/XRKVgMlSRwl+1nyhWI+s0+Xs4KYgNvPtlBKuJvVniX4En+9yfxWVpDx2yc2+Bosl0o5fw77U0PakjMzOz4B);strokeColor=#ff5958;spacingTop=-3;spacingBottom=-3;spacingLeft=-3;spacingRight=-3;points=[];labelBackgroundColor=none;rounded=0;html=1;whiteSpace=wrap;container=0;" parent="1" vertex="1">
          <mxGeometry x="1673" y="408.7829411764701" width="130" height="105.5" as="geometry" />
        </mxCell>
        <mxCell id="AOUFwX7jz5b8gHtSBeTc-137" value="&lt;div style=&quot;font-size: 1px&quot;&gt;&lt;font style=&quot;font-size:22.58px;font-family:Arial;color:#000000;direction:ltr;letter-spacing:0px;line-height:120%;opacity:1&quot;&gt;PosrgreSQL&lt;br&gt;&lt;/font&gt;&lt;/div&gt;&lt;div style=&quot;font-size: 1px&quot;&gt;&lt;font style=&quot;font-size:22.58px;font-family:Arial;color:#000000;direction:ltr;letter-spacing:0px;line-height:120%;opacity:1&quot;&gt;(master)&lt;/font&gt;&lt;/div&gt;" style="verticalAlign=bottom;align=center;overflow=width;vsdxID=6;fillColor=none;gradientColor=none;strokeColor=none;spacingTop=-3;spacingBottom=-3;spacingLeft=-3;spacingRight=-3;points=[];labelBackgroundColor=none;rounded=0;html=1;whiteSpace=wrap;container=0;" parent="1" vertex="1">
          <mxGeometry x="1673" y="453.78294117647033" width="130" height="53.21" as="geometry" />
        </mxCell>
        <mxCell id="AOUFwX7jz5b8gHtSBeTc-138" value="" style="shape=image;verticalLabelPosition=bottom;verticalAlign=top;imageAspect=0;aspect=fixed;image=data:image/svg+xml,PHN2ZyB4bWxucz0iaHR0cDovL3d3dy53My5vcmcvMjAwMC9zdmciIHdpZHRoPSIzMiIgaGVpZ2h0PSIzMiIgdmlld0JveD0iMCAwIDMyIDMyIiBmaWxsPSJub25lIj4mI3hhOzxwYXRoIGQ9Ik0wIDE2QzAgNy4xNjM0NCA3LjE2MzQ0IDAgMTYgMFYwQzI0LjgzNjYgMCAzMiA3LjE2MzQ0IDMyIDE2VjE2QzMyIDI0LjgzNjYgMjQuODM2NiAzMiAxNiAzMlYzMkM3LjE2MzQ0IDMyIDAgMjQuODM2NiAwIDE2VjE2WiIgZmlsbD0iIzUyODJGRiIvPiYjeGE7PHBhdGggZmlsbC1ydWxlPSJldmVub2RkIiBjbGlwLXJ1bGU9ImV2ZW5vZGQiIGQ9Ik0xMyA4SDE4QzIxLjMgOCAyNCAxMC43IDI0IDE0VjI0SDIwVjIwSDIyVjE5SDE4LjZDMTUuNSAxOSAxMyAxNi41IDEzIDEzLjRWOFpNMTkgMTdIMjFWMTVIMTlWMTdaTTEyIDkuMDk5OThWMTMuNEMxMiAxNi44IDE0LjYgMTkuNyAxOCAyMC4xVjIwLjZDMTggMjIgMTUuOCAyMy4xIDEzIDIzLjFDMTAuMiAyMy4xIDggMjIgOCAyMC42VjExLjZDOCAxMC4zIDkuNyA5LjI5OTk4IDEyIDkuMDk5OThaIiBmaWxsPSJ3aGl0ZSIvPiYjeGE7PC9zdmc+;container=0;" parent="1" vertex="1">
          <mxGeometry x="1717.5" y="412.7829411764701" width="36.26923076923077" height="36.26923076923077" as="geometry" />
        </mxCell>
        <mxCell id="AOUFwX7jz5b8gHtSBeTc-139" value="" style="group" parent="1" vertex="1" connectable="0">
          <mxGeometry x="1650" y="180.58000000000004" width="430" height="359.42" as="geometry" />
        </mxCell>
        <mxCell id="AOUFwX7jz5b8gHtSBeTc-140" style="vsdxID=6;fillColor=none;gradientColor=none;shape=stencil(vVNdD4IgFP01POIQms1nq//BEpVF4q6U9u/DoFJxPdjm2/04cO65cBDL2oo3AlHSGtAX0cncVIgdEKWyrgRIYyPEjohlhQZRgr7VucsbPiCH6Krvww29O0eGE5Q8XJaSaPcqnByWw9k2wWNZRFMHhzc+SlwhQHhATDxBj3kvWwzacCN1PSFXHEqBLRcuFC8nrbYTognKfjol65GSNIn28SL5SjGf2efL2UBMwO1nWykl3M1mzxJ8ib/eZHkrG8j47RMbfA1WSKWcP8f9uSFtyZmZHZ8=);strokeColor=#5282ff;spacingTop=-3;spacingBottom=-3;spacingLeft=-3;spacingRight=-3;points=[];labelBackgroundColor=none;rounded=0;html=1;whiteSpace=wrap;container=0;" parent="AOUFwX7jz5b8gHtSBeTc-139" vertex="1">
          <mxGeometry width="394.1666666666667" height="359.42" as="geometry" />
        </mxCell>
        <mxCell id="AOUFwX7jz5b8gHtSBeTc-141" style="edgeStyle=orthogonalEdgeStyle;rounded=0;orthogonalLoop=1;jettySize=auto;html=1;" parent="1" source="AOUFwX7jz5b8gHtSBeTc-142" target="AOUFwX7jz5b8gHtSBeTc-146" edge="1">
          <mxGeometry relative="1" as="geometry" />
        </mxCell>
        <mxCell id="AOUFwX7jz5b8gHtSBeTc-142" style="vsdxID=5;fillColor=none;gradientColor=none;shape=stencil(vVPLEoIgFP0aljgEVuPa6j+YRGUica6U9vdhUKk4LWzG3X0cOPdcOIilTclrgShpDOiLaGVmSsQOiFJZlQKksRFiR8TSXIMoQN+qzOU175F9dNX3/obOnSP9CUoeLktIFL8KJ4flcLZN8NhtRJiDwxsf7VwhQHjAhniCDvNONhi04UbqakSuOBQCWy6cK16MWk0rRB2U/XRKVgMlSRwl+1nyhWI+s0+Xs4KYgNvPtlBKuJvVniX4En+9yfxWVpDx2yc2+Bosl0o5fw77U0PakjMzOz4B);strokeColor=#ff5958;spacingTop=-3;spacingBottom=-3;spacingLeft=-3;spacingRight=-3;points=[];labelBackgroundColor=none;rounded=0;html=1;whiteSpace=wrap;container=0;" parent="1" vertex="1">
          <mxGeometry x="1677.63" y="290" width="130" height="95.5" as="geometry" />
        </mxCell>
        <mxCell id="AOUFwX7jz5b8gHtSBeTc-143" value="&lt;div style=&quot;&quot;&gt;&lt;font face=&quot;Arial&quot;&gt;&lt;span style=&quot;font-size: 22.58px;&quot;&gt;PgBouncer&lt;/span&gt;&lt;/font&gt;&lt;/div&gt;" style="verticalAlign=bottom;align=center;overflow=width;vsdxID=6;fillColor=none;gradientColor=none;strokeColor=none;spacingTop=-3;spacingBottom=-3;spacingLeft=-3;spacingRight=-3;points=[];labelBackgroundColor=none;rounded=0;html=1;whiteSpace=wrap;container=0;" parent="1" vertex="1">
          <mxGeometry x="1677.63" y="325" width="130" height="53.21" as="geometry" />
        </mxCell>
        <mxCell id="AOUFwX7jz5b8gHtSBeTc-144" value="" style="shape=image;verticalLabelPosition=bottom;verticalAlign=top;imageAspect=0;aspect=fixed;image=data:image/svg+xml,PHN2ZyB4bWxucz0iaHR0cDovL3d3dy53My5vcmcvMjAwMC9zdmciIHdpZHRoPSIzMiIgaGVpZ2h0PSIzMiIgdmlld0JveD0iMCAwIDMyIDMyIiBmaWxsPSJub25lIj4mI3hhOzxwYXRoIGQ9Ik0wIDE2QzAgNy4xNjM0NCA3LjE2MzQ0IDAgMTYgMFYwQzI0LjgzNjYgMCAzMiA3LjE2MzQ0IDMyIDE2VjE2QzMyIDI0LjgzNjYgMjQuODM2NiAzMiAxNiAzMlYzMkM3LjE2MzQ0IDMyIDAgMjQuODM2NiAwIDE2VjE2WiIgZmlsbD0iIzUyODJGRiIvPiYjeGE7PHBhdGggZmlsbC1ydWxlPSJldmVub2RkIiBjbGlwLXJ1bGU9ImV2ZW5vZGQiIGQ9Ik0xMyA4SDE4QzIxLjMgOCAyNCAxMC43IDI0IDE0VjI0SDIwVjIwSDIyVjE5SDE4LjZDMTUuNSAxOSAxMyAxNi41IDEzIDEzLjRWOFpNMTkgMTdIMjFWMTVIMTlWMTdaTTEyIDkuMDk5OThWMTMuNEMxMiAxNi44IDE0LjYgMTkuNyAxOCAyMC4xVjIwLjZDMTggMjIgMTUuOCAyMy4xIDEzIDIzLjFDMTAuMiAyMy4xIDggMjIgOCAyMC42VjExLjZDOCAxMC4zIDkuNyA5LjI5OTk4IDEyIDkuMDk5OThaIiBmaWxsPSJ3aGl0ZSIvPiYjeGE7PC9zdmc+;container=0;" parent="1" vertex="1">
          <mxGeometry x="1724.5" y="302.75" width="36.26923076923077" height="36.26923076923077" as="geometry" />
        </mxCell>
        <mxCell id="AOUFwX7jz5b8gHtSBeTc-145" style="edgeStyle=orthogonalEdgeStyle;rounded=0;orthogonalLoop=1;jettySize=auto;html=1;" parent="1" source="AOUFwX7jz5b8gHtSBeTc-146" target="AOUFwX7jz5b8gHtSBeTc-150" edge="1">
          <mxGeometry relative="1" as="geometry" />
        </mxCell>
        <mxCell id="AOUFwX7jz5b8gHtSBeTc-146" style="vsdxID=5;fillColor=none;gradientColor=none;shape=stencil(vVPLEoIgFP0aljgEVuPa6j+YRGUica6U9vdhUKk4LWzG3X0cOPdcOIilTclrgShpDOiLaGVmSsQOiFJZlQKksRFiR8TSXIMoQN+qzOU175F9dNX3/obOnSP9CUoeLktIFL8KJ4flcLZN8NhtRJiDwxsf7VwhQHjAhniCDvNONhi04UbqakSuOBQCWy6cK16MWk0rRB2U/XRKVgMlSRwl+1nyhWI+s0+Xs4KYgNvPtlBKuJvVniX4En+9yfxWVpDx2yc2+Bosl0o5fw77U0PakjMzOz4B);strokeColor=#ff5958;spacingTop=-3;spacingBottom=-3;spacingLeft=-3;spacingRight=-3;points=[];labelBackgroundColor=none;rounded=0;html=1;whiteSpace=wrap;container=0;" parent="1" vertex="1">
          <mxGeometry x="1847" y="237" width="170" height="122.75" as="geometry" />
        </mxCell>
        <mxCell id="AOUFwX7jz5b8gHtSBeTc-147" value="&lt;div style=&quot;font-size: 1px&quot;&gt;&lt;font style=&quot;font-size:22.58px;font-family:Arial;color:#000000;direction:ltr;letter-spacing:0px;line-height:120%;opacity:1&quot;&gt;PosrgreSQL&lt;br&gt;&lt;/font&gt;&lt;/div&gt;&lt;div style=&quot;font-size: 1px&quot;&gt;&lt;font style=&quot;font-size:22.58px;font-family:Arial;color:#000000;direction:ltr;letter-spacing:0px;line-height:120%;opacity:1&quot;&gt;(Read Replica)&lt;/font&gt;&lt;/div&gt;" style="verticalAlign=bottom;align=center;overflow=width;vsdxID=6;fillColor=none;gradientColor=none;strokeColor=none;spacingTop=-3;spacingBottom=-3;spacingLeft=-3;spacingRight=-3;points=[];labelBackgroundColor=none;rounded=0;html=1;whiteSpace=wrap;container=0;" parent="1" vertex="1">
          <mxGeometry x="1854" y="289.75" width="160" height="53.21" as="geometry" />
        </mxCell>
        <mxCell id="AOUFwX7jz5b8gHtSBeTc-148" style="edgeStyle=orthogonalEdgeStyle;rounded=0;orthogonalLoop=1;jettySize=auto;html=1;entryX=0.534;entryY=-0.013;entryDx=0;entryDy=0;entryPerimeter=0;" parent="1" source="AOUFwX7jz5b8gHtSBeTc-142" target="AOUFwX7jz5b8gHtSBeTc-136" edge="1">
          <mxGeometry relative="1" as="geometry" />
        </mxCell>
        <mxCell id="AOUFwX7jz5b8gHtSBeTc-149" style="edgeStyle=orthogonalEdgeStyle;rounded=0;orthogonalLoop=1;jettySize=auto;html=1;" parent="1" source="AOUFwX7jz5b8gHtSBeTc-150" target="AOUFwX7jz5b8gHtSBeTc-156" edge="1">
          <mxGeometry relative="1" as="geometry">
            <Array as="points">
              <mxPoint x="1932" y="560" />
              <mxPoint x="1478" y="560" />
            </Array>
          </mxGeometry>
        </mxCell>
        <mxCell id="AOUFwX7jz5b8gHtSBeTc-150" style="vsdxID=5;fillColor=none;gradientColor=none;shape=stencil(vVPLEoIgFP0aljgEVuPa6j+YRGUica6U9vdhUKk4LWzG3X0cOPdcOIilTclrgShpDOiLaGVmSsQOiFJZlQKksRFiR8TSXIMoQN+qzOU175F9dNX3/obOnSP9CUoeLktIFL8KJ4flcLZN8NhtRJiDwxsf7VwhQHjAhniCDvNONhi04UbqakSuOBQCWy6cK16MWk0rRB2U/XRKVgMlSRwl+1nyhWI+s0+Xs4KYgNvPtlBKuJvVniX4En+9yfxWVpDx2yc2+Bosl0o5fw77U0PakjMzOz4B);strokeColor=#ff5958;spacingTop=-3;spacingBottom=-3;spacingLeft=-3;spacingRight=-3;points=[];labelBackgroundColor=none;rounded=0;html=1;whiteSpace=wrap;container=0;" parent="1" vertex="1">
          <mxGeometry x="1867" y="409" width="130" height="105.5" as="geometry" />
        </mxCell>
        <mxCell id="AOUFwX7jz5b8gHtSBeTc-151" value="&lt;div style=&quot;&quot;&gt;&lt;font face=&quot;Arial&quot;&gt;&lt;span style=&quot;font-size: 22.58px;&quot;&gt;PostgreSQL Exporter&lt;/span&gt;&lt;/font&gt;&lt;/div&gt;" style="verticalAlign=bottom;align=center;overflow=width;vsdxID=6;fillColor=none;gradientColor=none;strokeColor=none;spacingTop=-3;spacingBottom=-3;spacingLeft=-3;spacingRight=-3;points=[];labelBackgroundColor=none;rounded=0;html=1;whiteSpace=wrap;container=0;" parent="1" vertex="1">
          <mxGeometry x="1867" y="452.5100000000002" width="130" height="53.21" as="geometry" />
        </mxCell>
        <mxCell id="AOUFwX7jz5b8gHtSBeTc-152" style="vsdxID=5;fillColor=none;gradientColor=none;strokeColor=none;spacingTop=-3;spacingBottom=-3;spacingLeft=-3;spacingRight=-3;points=[];labelBackgroundColor=none;rounded=0;html=1;whiteSpace=wrap;" parent="1" vertex="1">
          <mxGeometry x="1918" y="249.75" width="33" height="33" as="geometry" />
        </mxCell>
        <mxCell id="AOUFwX7jz5b8gHtSBeTc-153" style="vsdxID=6;fillColor=#5282ff;gradientColor=none;shape=stencil(jZLRDoIwDEW/Zq9ka8XBo0H8DyIgiwhmgMLfyywGNiRhT+12253elGHUFMkzY8CbVtf37K3StmB4ZgCqKjKt2jFiGDOM8lpnN113VUr5MzFKEz3ql+nQU53PTQnwgVLKLqS8dpqkgh6l9PxQikD6U41YFvEeKBX813O6APAwXJ5Jj64eLaYvBT/9AZkrZrKjDbFideF6dAxwaLZ/H8c5cJCBAMeHuTdYxgywokRbsHdwZ+wtY2EL1ObassClKFW1c2PGYF60XJUl7eny3V3M8YqWGuMP);strokeColor=none;spacingTop=-3;spacingBottom=-3;spacingLeft=-3;spacingRight=-3;points=[];labelBackgroundColor=none;rounded=0;html=1;whiteSpace=wrap;" parent="AOUFwX7jz5b8gHtSBeTc-152" vertex="1">
          <mxGeometry width="33" height="33" as="geometry" />
        </mxCell>
        <mxCell id="AOUFwX7jz5b8gHtSBeTc-154" style="vsdxID=7;fillColor=#FFFFFF;gradientColor=none;shape=stencil(pVjRctw2DPyae+UABAgQj500/Y9M4zSeunbGSdr077u8s6QTxZPsZsbJ2HekCAKL3YVO8u7r5w9f7k6Zvn57fvrz7p/7j98+n+TXU873j5/vnu+/4beTvD/Ju09Pz3d/PD99f/x4+fvLh7ay/fbX09/tCT8u+yhRbpsy/Xv5oGrSev7kt8v6h/vH6/WrxayJ+Hrx79+fL0/n+fEmSkZqXCRyvGznZX+JbF5cqSqRXr7/kaftLFRDXdnDdYo0z7uZhNgtV3eOmHbLtHvaIMsGXcKlXwYR56QiRMHiJsbreC3ljINKroLTiHwdbpZUw6iSS1SKdbS0Dq7QlLo5PDoIzQ33xam5eBSr69BoHUp4KqUiZVlbnPNRef8iL5FEpHqcujUymA6wsb98g7v+9suGlw9CEimuyMLUMLROgHsyEi+oI5uWDjl0XI1pzQ5UgBVGrkrNktexLQfMSCY2M6leFHCXQtSh+cZ1ZixTB+YuYYOKHPf2mgsqGibWGyLZbn/jibhruANFhbvurhUYDDGyiDyld0pI9cQl44dYi9R1LvClVLBGoDLo7nUqEBSXLhfAczmoVlByriiNAA61655akpjVYk61eBdqcJLCqtUkS9EuVMVjOYOmapBE10ecTDZlkz7UddmuN710qyXZL0MkJFpbIajI+mrm4FhvV864vm6qUBiY9OwKFHckgRYKrgLuVg+ZKyhzzjTWl7Oa8hHBekmewZCiKnUu5PQlgUGro0ZZIBfrYE2AT6+suaK9uzo4mpGwsxRuinHY3m09H4Qq1iATgpIg4k4LxgdOSoC+gBJwIyDq0jq+48Kzhd+eVG63CbNo9Z+KfIUAC8vU/mXrksoE5JeqbSP0YIMAAj4EhQICoLAdApJ4F+saqQN0Y8/Ue0tD+C64k7XWU6tOyFjXuMP2mxoXRSAOqZFLD+5xx8/cn6q9nWJQBTwQOM0K3uqqMOa0qQpoChgccdQHhmgjDmMqnaKN5B1mOuIey5ejf4u6w3jBUKyjBQm5cDU1JF9gh9bxSk0MYJtBX613OlAy+BRpakfgncNWbOsPYjVuPXPWR0hnJ7bj8xZeKHCfhItWCHUXKW6ZNWDaUDbpUXCthzt57fB9LKJr1d3SfQHir9cfyQOK4fn/yoNEQo0ZeRU4wi55u/KgcOdEpRBnuFE4gHKoD9hiR020qw8q4BcV0iYCXbC78qCaIH6C/hOSKoeYPK//GXkYH/gKeWhXJBh3TCC4iS0z0W2FeE1azwrhjEkgL3PWHGwrpcCXws4CKUspr0UCA5pXRMVdEzUElWpAENgZN+4DBuN3XNoAe6gSk7KMe2JzPbCrQKtAAcX661lOAESUpiHW2LVTa8nJMiiQtTaj02lgQb6jDVwBk2s9+Q6w03YcYQfKKto8AMGQ1tlbzRHfOHTqSwRcoG3F2l7rAsZtK6we7uJ5krEdR9pSu1+Nn6eofv0RBQpPs8srD4CA2i5Axiae590CbxEY58BjGOm6YbLNDhSwGAo3Bp/UCR5a0vRslIgMCIpueGsTi66TzpLcTvsYGY9ISz/DabgVh0EvBg3rIIKBPRRkyQyc5P4FAHNSdTgjaDuILKLDyUD7Ggn0A+eGvMEysJmODIMu+nkwIXs4tUqBmVmOnHA71Pj5hQWyD4fLzBq6CXfUheklJTsEPnQxvH/iROFNGlF5cGpzfOtob930tmFryT0KFyiFujHxmeX6V2mtoMCgnjEos4OcKXzoTZcvjQEhAk1WyxspH/jhBuDDkRsphJ2Fv0DPzCKwvPvLiuHJYYphwCI25p1ECiw/KpSlhy/UNdhB5xhMmCI6l7nVnEYQ+3P31Z4XeFCKq5qMRQf/g2zNq6+vJyUhPqgJRrLB6w85Zxw/pU1edYbILKqeArhr6orxbDN7D/B+3vFzqnPr0Neozq373tadxvFv1Z0368JmA35Z3oV/un94uLxKv/6+f3eOjy7v3eX9fw==);strokeColor=none;spacingTop=-3;spacingBottom=-3;spacingLeft=-3;spacingRight=-3;points=[];labelBackgroundColor=none;rounded=0;html=1;whiteSpace=wrap;" parent="AOUFwX7jz5b8gHtSBeTc-152" vertex="1">
          <mxGeometry x="10" y="8" width="12" height="16" as="geometry" />
        </mxCell>
        <mxCell id="AOUFwX7jz5b8gHtSBeTc-155" value="" style="shape=image;verticalLabelPosition=bottom;verticalAlign=top;imageAspect=0;image=data:image/svg+xml,PHN2ZyB4bWxucz0iaHR0cDovL3d3dy53My5vcmcvMjAwMC9zdmciIHdpZHRoPSIzMiIgaGVpZ2h0PSIzMiIgdmlld0JveD0iMCAwIDMyIDMyIiBmaWxsPSJub25lIj4mI3hhOzxwYXRoIGQ9Ik0wIDE2QzAgNy4xNjM0NCA3LjE2MzQ0IDAgMTYgMEMyNC44MzY2IDAgMzIgNy4xNjM0NCAzMiAxNkMzMiAyNC44MzY2IDI0LjgzNjYgMzIgMTYgMzJDNy4xNjM0NCAzMiAwIDI0LjgzNjYgMCAxNloiIGZpbGw9IiM1MjgyRkYiLz4mI3hhOzxwYXRoIGZpbGwtcnVsZT0iZXZlbm9kZCIgY2xpcC1ydWxlPSJldmVub2RkIiBkPSJNOC45OTg5OCAyMi44NThWMjEuMTM4QzguOTk4OTggMjEuMDU4IDkuMDYyOTggMjEuMDA1IDkuMTM5OTggMjEuMDA1SDE4Ljg1OUMxOC45MzYgMjEuMDA1IDE5IDIxLjA1OCAxOSAyMS4xMzhWMjIuODU4QzE5IDIyLjkzOCAxOC45MzYgMjMuMDA1IDE4Ljg1OSAyMy4wMDVIOS4xMzk5OEM5LjEwMTg3IDIzLjAwNCA5LjA2NTcxIDIyLjk4OCA5LjAzOTMyIDIyLjk2MDVDOS4wMTI5MyAyMi45MzI5IDguOTk4NDQgMjIuODk2MSA4Ljk5ODk4IDIyLjg1OFpNOC45OTk5OCAxOC44NThWMTcuMTM4QzguOTk5OTggMTcuMDcxIDkuMDYzOTggMTcuMDA1IDkuMTQwOTggMTcuMDA1SDIyLjg2QzIyLjkzNyAxNy4wMDUgMjMuMDAxIDE3LjA3MSAyMy4wMDEgMTcuMTM4VjE4Ljg1OEMyMy4wMDEgMTguOTM4IDIyLjkzNyAxOS4wMDUgMjIuODYgMTkuMDA1SDkuMTQwOThDOS4xMDI4NyAxOS4wMDQgOS4wNjY3MSAxOC45ODggOS4wNDAzMiAxOC45NjA1QzkuMDEzOTMgMTguOTMyOSA4Ljk5OTQ0IDE4Ljg5NjEgOC45OTk5OCAxOC44NThaTTguOTk4OTggMTQuODU4VjEzLjEzOEM4Ljk5ODk4IDEzLjA3MSA5LjA2Mjk4IDEzLjAwNCA5LjEzODk4IDEzLjAwNEgyMC44NkMyMC45MzYgMTMuMDA0IDIxIDEzLjA3MSAyMSAxMy4xMzhWMTQuODU4QzIxIDE0LjkzOCAyMC45MzYgMTUuMDA0IDIwLjg2IDE1LjAwNEg5LjEzODk4QzkuMTAxMjIgMTUuMDAyNyA5LjA2NTQ2IDE0Ljk4NjcgOS4wMzkzMSAxNC45NTk1QzkuMDEzMTcgMTQuOTMyMiA4Ljk5ODY5IDE0Ljg5NTggOC45OTg5OCAxNC44NThaTTguOTk5OTggMTAuODU4VjkuMTM4MDNDOC45OTk5OCA5LjA3MTAzIDkuMDYzOTggOS4wMDQwMyA5LjE0MDk4IDkuMDA0MDNIMjIuODU3QzIyLjkzNSA5LjAwNDAzIDIyLjk5OSA5LjA3MTAzIDIyLjk5OSA5LjEzNzAzVjEwLjg1N0MyMi45OTkgMTAuOTM3IDIyLjkzNSAxMS4wMDQgMjIuODU3IDExLjAwNEg5LjE0MDk4QzkuMTAyODcgMTEuMDAzIDkuMDY2NzEgMTAuOTg3IDkuMDQwMzIgMTAuOTU5NUM5LjAxMzkzIDEwLjkzMTkgOC45OTk0NCAxMC44OTUxIDguOTk5OTggMTAuODU3VjEwLjg1OFoiIGZpbGw9IndoaXRlIi8+JiN4YTs8L3N2Zz4=;" parent="1" vertex="1">
          <mxGeometry x="1916" y="417.78" width="32" height="32" as="geometry" />
        </mxCell>
        <mxCell id="AOUFwX7jz5b8gHtSBeTc-156" style="vsdxID=5;fillColor=none;gradientColor=none;shape=stencil(vVPLEoIgFP0aljgEVuPa6j+YRGUica6U9vdhUKk4LWzG3X0cOPdcOIilTclrgShpDOiLaGVmSsQOiFJZlQKksRFiR8TSXIMoQN+qzOU175F9dNX3/obOnSP9CUoeLktIFL8KJ4flcLZN8NhtRJiDwxsf7VwhQHjAhniCDvNONhi04UbqakSuOBQCWy6cK16MWk0rRB2U/XRKVgMlSRwl+1nyhWI+s0+Xs4KYgNvPtlBKuJvVniX4En+9yfxWVpDx2yc2+Bosl0o5fw77U0PakjMzOz4B);strokeColor=#ff5958;spacingTop=-3;spacingBottom=-3;spacingLeft=-3;spacingRight=-3;points=[];labelBackgroundColor=none;rounded=0;html=1;whiteSpace=wrap;" parent="1" vertex="1">
          <mxGeometry x="1351.5700000000002" y="417.78" width="252" height="104" as="geometry" />
        </mxCell>
        <mxCell id="AOUFwX7jz5b8gHtSBeTc-157" value="&lt;div style=&quot;font-size: 1px&quot;&gt;&lt;font style=&quot;font-size:22.58px;font-family:Arial;color:#000000;direction:ltr;letter-spacing:0px;line-height:120%;opacity:1&quot;&gt;Graphana&lt;br&gt;&lt;/font&gt;&lt;/div&gt;" style="verticalAlign=bottom;align=center;overflow=width;vsdxID=6;fillColor=none;gradientColor=none;strokeColor=none;spacingTop=-3;spacingBottom=-3;spacingLeft=-3;spacingRight=-3;points=[];labelBackgroundColor=none;rounded=0;html=1;whiteSpace=wrap;" parent="1" vertex="1">
          <mxGeometry x="1351.5700000000002" y="484.78" width="252" height="28" as="geometry" />
        </mxCell>
        <mxCell id="AOUFwX7jz5b8gHtSBeTc-158" value="" style="shape=image;verticalLabelPosition=bottom;verticalAlign=top;imageAspect=0;aspect=fixed;image=data:image/svg+xml,PHN2ZyB4bWxucz0iaHR0cDovL3d3dy53My5vcmcvMjAwMC9zdmciIHdpZHRoPSIzMiIgaGVpZ2h0PSIzMiIgdmlld0JveD0iMCAwIDMyIDMyIiBmaWxsPSJub25lIj4mI3hhOzxwYXRoIGQ9Ik0wIDE2QzAgNy4xNjM0NCA3LjE2MzQ0IDAgMTYgMFYwQzI0LjgzNjYgMCAzMiA3LjE2MzQ0IDMyIDE2VjE2QzMyIDI0LjgzNjYgMjQuODM2NiAzMiAxNiAzMlYzMkM3LjE2MzQ0IDMyIDAgMjQuODM2NiAwIDE2VjE2WiIgZmlsbD0iIzUyODJGRiIvPiYjeGE7PHBhdGggZD0iTTkgMTBIOFYyMkgyNFYyMEg5VjEwWk0yMC41IDE1LjVMMTcgMTJMMTMuNSAxNS41TDEwIDEyVjE5SDI0VjEyTDIwLjUgMTUuNVoiIGZpbGw9IndoaXRlIi8+JiN4YTs8L3N2Zz4=;" parent="1" vertex="1">
          <mxGeometry x="1461.5700000000002" y="439.78" width="32" height="32" as="geometry" />
        </mxCell>
        <mxCell id="AOUFwX7jz5b8gHtSBeTc-159" style="edgeStyle=orthogonalEdgeStyle;rounded=0;orthogonalLoop=1;jettySize=auto;html=1;" parent="1" source="AOUFwX7jz5b8gHtSBeTc-160" target="AOUFwX7jz5b8gHtSBeTc-156" edge="1">
          <mxGeometry relative="1" as="geometry" />
        </mxCell>
        <mxCell id="AOUFwX7jz5b8gHtSBeTc-160" style="vsdxID=5;fillColor=none;gradientColor=none;shape=stencil(vVPLEoIgFP0aljgEVuPa6j+YRGUica6U9vdhUKk4LWzG3X0cOPdcOIilTclrgShpDOiLaGVmSsQOiFJZlQKksRFiR8TSXIMoQN+qzOU175F9dNX3/obOnSP9CUoeLktIFL8KJ4flcLZN8NhtRJiDwxsf7VwhQHjAhniCDvNONhi04UbqakSuOBQCWy6cK16MWk0rRB2U/XRKVgMlSRwl+1nyhWI+s0+Xs4KYgNvPtlBKuJvVniX4En+9yfxWVpDx2yc2+Bosl0o5fw77U0PakjMzOz4B);strokeColor=#ff5958;spacingTop=-3;spacingBottom=-3;spacingLeft=-3;spacingRight=-3;points=[];labelBackgroundColor=none;rounded=0;html=1;whiteSpace=wrap;container=0;" parent="1" vertex="1">
          <mxGeometry x="1340" y="-8.850000000000023" width="130" height="80" as="geometry" />
        </mxCell>
        <mxCell id="AOUFwX7jz5b8gHtSBeTc-161" value="&lt;div style=&quot;&quot;&gt;&lt;font face=&quot;Arial&quot;&gt;&lt;span style=&quot;font-size: 22.58px;&quot;&gt;Prometheus&lt;/span&gt;&lt;/font&gt;&lt;/div&gt;" style="verticalAlign=bottom;align=center;overflow=width;vsdxID=6;fillColor=none;gradientColor=none;strokeColor=none;spacingTop=-3;spacingBottom=-3;spacingLeft=-3;spacingRight=-3;points=[];labelBackgroundColor=none;rounded=0;html=1;whiteSpace=wrap;container=0;" parent="1" vertex="1">
          <mxGeometry x="1340" y="40" width="130" height="25" as="geometry" />
        </mxCell>
        <mxCell id="AOUFwX7jz5b8gHtSBeTc-162" value="" style="shape=image;verticalLabelPosition=bottom;verticalAlign=top;imageAspect=0;image=data:image/svg+xml,PHN2ZyB4bWxucz0iaHR0cDovL3d3dy53My5vcmcvMjAwMC9zdmciIHdpZHRoPSIzMiIgaGVpZ2h0PSIzMiIgdmlld0JveD0iMCAwIDMyIDMyIiBmaWxsPSJub25lIj4mI3hhOzxwYXRoIGQ9Ik0wIDE2QzAgNy4xNjM0NCA3LjE2MzQ0IDAgMTYgMEMyNC44MzY2IDAgMzIgNy4xNjM0NCAzMiAxNkMzMiAyNC44MzY2IDI0LjgzNjYgMzIgMTYgMzJDNy4xNjM0NCAzMiAwIDI0LjgzNjYgMCAxNloiIGZpbGw9IiM1MjgyRkYiLz4mI3hhOzxwYXRoIGZpbGwtcnVsZT0iZXZlbm9kZCIgY2xpcC1ydWxlPSJldmVub2RkIiBkPSJNOC45OTg5OCAyMi44NThWMjEuMTM4QzguOTk4OTggMjEuMDU4IDkuMDYyOTggMjEuMDA1IDkuMTM5OTggMjEuMDA1SDE4Ljg1OUMxOC45MzYgMjEuMDA1IDE5IDIxLjA1OCAxOSAyMS4xMzhWMjIuODU4QzE5IDIyLjkzOCAxOC45MzYgMjMuMDA1IDE4Ljg1OSAyMy4wMDVIOS4xMzk5OEM5LjEwMTg3IDIzLjAwNCA5LjA2NTcxIDIyLjk4OCA5LjAzOTMyIDIyLjk2MDVDOS4wMTI5MyAyMi45MzI5IDguOTk4NDQgMjIuODk2MSA4Ljk5ODk4IDIyLjg1OFpNOC45OTk5OCAxOC44NThWMTcuMTM4QzguOTk5OTggMTcuMDcxIDkuMDYzOTggMTcuMDA1IDkuMTQwOTggMTcuMDA1SDIyLjg2QzIyLjkzNyAxNy4wMDUgMjMuMDAxIDE3LjA3MSAyMy4wMDEgMTcuMTM4VjE4Ljg1OEMyMy4wMDEgMTguOTM4IDIyLjkzNyAxOS4wMDUgMjIuODYgMTkuMDA1SDkuMTQwOThDOS4xMDI4NyAxOS4wMDQgOS4wNjY3MSAxOC45ODggOS4wNDAzMiAxOC45NjA1QzkuMDEzOTMgMTguOTMyOSA4Ljk5OTQ0IDE4Ljg5NjEgOC45OTk5OCAxOC44NThaTTguOTk4OTggMTQuODU4VjEzLjEzOEM4Ljk5ODk4IDEzLjA3MSA5LjA2Mjk4IDEzLjAwNCA5LjEzODk4IDEzLjAwNEgyMC44NkMyMC45MzYgMTMuMDA0IDIxIDEzLjA3MSAyMSAxMy4xMzhWMTQuODU4QzIxIDE0LjkzOCAyMC45MzYgMTUuMDA0IDIwLjg2IDE1LjAwNEg5LjEzODk4QzkuMTAxMjIgMTUuMDAyNyA5LjA2NTQ2IDE0Ljk4NjcgOS4wMzkzMSAxNC45NTk1QzkuMDEzMTcgMTQuOTMyMiA4Ljk5ODY5IDE0Ljg5NTggOC45OTg5OCAxNC44NThaTTguOTk5OTggMTAuODU4VjkuMTM4MDNDOC45OTk5OCA5LjA3MTAzIDkuMDYzOTggOS4wMDQwMyA5LjE0MDk4IDkuMDA0MDNIMjIuODU3QzIyLjkzNSA5LjAwNDAzIDIyLjk5OSA5LjA3MTAzIDIyLjk5OSA5LjEzNzAzVjEwLjg1N0MyMi45OTkgMTAuOTM3IDIyLjkzNSAxMS4wMDQgMjIuODU3IDExLjAwNEg5LjE0MDk4QzkuMTAyODcgMTEuMDAzIDkuMDY2NzEgMTAuOTg3IDkuMDQwMzIgMTAuOTU5NUM5LjAxMzkzIDEwLjkzMTkgOC45OTk0NCAxMC44OTUxIDguOTk5OTggMTAuODU3VjEwLjg1OFoiIGZpbGw9IndoaXRlIi8+JiN4YTs8L3N2Zz4=;" parent="1" vertex="1">
          <mxGeometry x="1389" y="1.419999999999959" width="32" height="32" as="geometry" />
        </mxCell>
        <mxCell id="AOUFwX7jz5b8gHtSBeTc-163" style="vsdxID=5;fillColor=none;gradientColor=none;shape=stencil(vVPLEoIgFP0aljgEVuPa6j+YRGUica6U9vdhUKk4LWzG3X0cOPdcOIilTclrgShpDOiLaGVmSsQOiFJZlQKksRFiR8TSXIMoQN+qzOU175F9dNX3/obOnSP9CUoeLktIFL8KJ4flcLZN8NhtRJiDwxsf7VwhQHjAhniCDvNONhi04UbqakSuOBQCWy6cK16MWk0rRB2U/XRKVgMlSRwl+1nyhWI+s0+Xs4KYgNvPtlBKuJvVniX4En+9yfxWVpDx2yc2+Bosl0o5fw77U0PakjMzOz4B);strokeColor=#ff5958;spacingTop=-3;spacingBottom=-3;spacingLeft=-3;spacingRight=-3;points=[];labelBackgroundColor=none;rounded=0;html=1;whiteSpace=wrap;container=0;" parent="1" vertex="1">
          <mxGeometry x="1480" y="-15" width="170" height="135" as="geometry" />
        </mxCell>
        <mxCell id="AOUFwX7jz5b8gHtSBeTc-164" value="&lt;div style=&quot;font-size: 1px&quot;&gt;&lt;font style=&quot;font-size:22.58px;font-family:Arial;color:#000000;direction:ltr;letter-spacing:0px;line-height:120%;opacity:1&quot;&gt;InsureTech&lt;/font&gt;&lt;/div&gt;&lt;div style=&quot;font-size: 1px&quot;&gt;&lt;font style=&quot;font-size:22.58px;font-family:Arial;color:#000000;direction:ltr;letter-spacing:0px;line-height:120%;opacity:1&quot;&gt;namespace (Cold Standby)&lt;/font&gt;&lt;/div&gt;" style="verticalAlign=bottom;align=center;overflow=width;vsdxID=6;fillColor=none;gradientColor=none;strokeColor=none;spacingTop=-3;spacingBottom=-3;spacingLeft=-3;spacingRight=-3;points=[];labelBackgroundColor=none;rounded=0;html=1;whiteSpace=wrap;container=0;" parent="1" vertex="1">
          <mxGeometry x="1480" y="30" width="170" height="80" as="geometry" />
        </mxCell>
        <mxCell id="AOUFwX7jz5b8gHtSBeTc-165" value="" style="shape=image;verticalLabelPosition=bottom;verticalAlign=top;imageAspect=0;aspect=fixed;image=data:image/svg+xml,PHN2ZyB4bWxucz0iaHR0cDovL3d3dy53My5vcmcvMjAwMC9zdmciIHdpZHRoPSIzMiIgaGVpZ2h0PSIzMiIgdmlld0JveD0iMCAwIDMyIDMyIiBmaWxsPSJub25lIj4mI3hhOzxwYXRoIGQ9Ik0wIDE2QzAgNy4xNjM0NCA3LjE2MzQ0IDAgMTYgMFYwQzI0LjgzNjYgMCAzMiA3LjE2MzQ0IDMyIDE2VjE2QzMyIDI0LjgzNjYgMjQuODM2NiAzMiAxNiAzMlYzMkM3LjE2MzQ0IDMyIDAgMjQuODM2NiAwIDE2VjE2WiIgZmlsbD0iIzUyODJGRiIvPiYjeGE7PHBhdGggZD0iTTExLjk5NSAyNEw3LjAwMDk4IDE3LjczOEw4Ljc4MTk4IDkuOTI3TDE2IDYuNDUzTDIzLjIxOCA5LjkyOEwyNC45OTkgMTcuNzM5TDIwLjAwNSAyNEgxMS45OTVaTTIwIDEzLjE5NkwxNS45OTkgMTAuODk5TDEyIDEzLjE5NlYxOC4xTDE2IDIwLjQwMUwyMCAxOC4xVjEzLjE5NlpNMTguNzggMTMuODk2SDE4Ljc4N0wxNiAxNS40OTlMMTMuMjE0IDEzLjg5NUgxMy4yMTlMMTUuOTk5IDEyLjI5OUwxOC43OCAxMy44OTZaIiBmaWxsPSJ3aGl0ZSIvPiYjeGE7PC9zdmc+;container=0;" parent="1" vertex="1">
          <mxGeometry x="1555.88" y="-5.2000000000000455" width="27.69545454545455" height="27.69545454545455" as="geometry" />
        </mxCell>
        <mxCell id="AOUFwX7jz5b8gHtSBeTc-166" value="" style="shape=image;verticalLabelPosition=bottom;verticalAlign=top;imageAspect=0;aspect=fixed;image=data:image/svg+xml,PHN2ZyB4bWxucz0iaHR0cDovL3d3dy53My5vcmcvMjAwMC9zdmciIHdpZHRoPSIzMiIgaGVpZ2h0PSIzMiIgdmlld0JveD0iMCAwIDMyIDMyIiBmaWxsPSJub25lIj4mI3hhOzxwYXRoIGQ9Ik0wIDE2QzAgNy4xNjM0NCA3LjE2MzQ0IDAgMTYgMFYwQzI0LjgzNjYgMCAzMiA3LjE2MzQ0IDMyIDE2VjE2QzMyIDI0LjgzNjYgMjQuODM2NiAzMiAxNiAzMlYzMkM3LjE2MzQ0IDMyIDAgMjQuODM2NiAwIDE2VjE2WiIgZmlsbD0iIzUyODJGRiIvPiYjeGE7PHBhdGggZD0iTTExLjk5NSAyNEw3LjAwMDk4IDE3LjczOEw4Ljc4MTk4IDkuOTI3TDE2IDYuNDUzTDIzLjIxOCA5LjkyOEwyNC45OTkgMTcuNzM5TDIwLjAwNSAyNEgxMS45OTVaTTIwIDEzLjE5NkwxNS45OTkgMTAuODk5TDEyIDEzLjE5NlYxOC4xTDE2IDIwLjQwMUwyMCAxOC4xVjEzLjE5NlpNMTguNzggMTMuODk2SDE4Ljc4N0wxNiAxNS40OTlMMTMuMjE0IDEzLjg5NUgxMy4yMTlMMTUuOTk5IDEyLjI5OUwxOC43OCAxMy44OTZaIiBmaWxsPSJ3aGl0ZSIvPiYjeGE7PC9zdmc+;container=0;" parent="1" vertex="1">
          <mxGeometry x="1955" y="-120" width="28.571428571428573" height="28.571428571428573" as="geometry" />
        </mxCell>
        <mxCell id="AOUFwX7jz5b8gHtSBeTc-167" style="vsdxID=5;fillColor=none;gradientColor=none;shape=stencil(vVPLEoIgFP0aljgEVuPa6j+YRGUica6U9vdhUKk4LWzG3X0cOPdcOIilTclrgShpDOiLaGVmSsQOiFJZlQKksRFiR8TSXIMoQN+qzOU175F9dNX3/obOnSP9CUoeLktIFL8KJ4flcLZN8NhtRJiDwxsf7VwhQHjAhniCDvNONhi04UbqakSuOBQCWy6cK16MWk0rRB2U/XRKVgMlSRwl+1nyhWI+s0+Xs4KYgNvPtlBKuJvVniX4En+9yfxWVpDx2yc2+Bosl0o5fw77U0PakjMzOz4B);strokeColor=#ff5958;spacingTop=-3;spacingBottom=-3;spacingLeft=-3;spacingRight=-3;points=[];labelBackgroundColor=none;rounded=0;html=1;whiteSpace=wrap;container=0;" parent="1" vertex="1">
          <mxGeometry x="1890" y="-130" width="130" height="100" as="geometry" />
        </mxCell>
        <mxCell id="AOUFwX7jz5b8gHtSBeTc-168" value="&lt;div style=&quot;font-size: 1px&quot;&gt;&lt;font style=&quot;font-size:22.58px;font-family:Arial;color:#000000;direction:ltr;letter-spacing:0px;line-height:120%;opacity:1&quot;&gt;InsureTech&lt;/font&gt;&lt;/div&gt;&lt;div style=&quot;font-size: 1px&quot;&gt;&lt;font style=&quot;font-size:22.58px;font-family:Arial;color:#000000;direction:ltr;letter-spacing:0px;line-height:120%;opacity:1&quot;&gt;namespace&lt;/font&gt;&lt;/div&gt;" style="verticalAlign=bottom;align=center;overflow=width;vsdxID=6;fillColor=none;gradientColor=none;strokeColor=none;spacingTop=-3;spacingBottom=-3;spacingLeft=-3;spacingRight=-3;points=[];labelBackgroundColor=none;rounded=0;html=1;whiteSpace=wrap;container=0;" parent="1" vertex="1">
          <mxGeometry x="1890" y="-90" width="130" height="54" as="geometry" />
        </mxCell>
        <mxCell id="AOUFwX7jz5b8gHtSBeTc-169" value="" style="group" parent="1" vertex="1" connectable="0">
          <mxGeometry x="1720" y="-150" width="324.99999999999994" height="280" as="geometry" />
        </mxCell>
        <mxCell id="AOUFwX7jz5b8gHtSBeTc-170" value="" style="shape=image;verticalLabelPosition=bottom;verticalAlign=top;imageAspect=0;aspect=fixed;image=data:image/svg+xml,PHN2ZyB4bWxucz0iaHR0cDovL3d3dy53My5vcmcvMjAwMC9zdmciIHdpZHRoPSIzMiIgaGVpZ2h0PSIzMiIgdmlld0JveD0iMCAwIDMyIDMyIiBmaWxsPSJub25lIj4mI3hhOzxwYXRoIGQ9Ik0wIDE2QzAgNy4xNjM0NCA3LjE2MzQ0IDAgMTYgMFYwQzI0LjgzNjYgMCAzMiA3LjE2MzQ0IDMyIDE2VjE2QzMyIDI0LjgzNjYgMjQuODM2NiAzMiAxNiAzMlYzMkM3LjE2MzQ0IDMyIDAgMjQuODM2NiAwIDE2VjE2WiIgZmlsbD0iIzUyODJGRiIvPiYjeGE7PHBhdGggZD0iTTExLjk5NSAyNEw3LjAwMDk4IDE3LjczOEw4Ljc4MTk4IDkuOTI3TDE2IDYuNDUzTDIzLjIxOCA5LjkyOEwyNC45OTkgMTcuNzM5TDIwLjAwNSAyNEgxMS45OTVaTTIwIDEzLjE5NkwxNS45OTkgMTAuODk5TDEyIDEzLjE5NlYxOC4xTDE2IDIwLjQwMUwyMCAxOC4xVjEzLjE5NlpNMTguNzggMTMuODk2SDE4Ljc4N0wxNiAxNS40OTlMMTMuMjE0IDEzLjg5NUgxMy4yMTlMMTUuOTk5IDEyLjI5OUwxOC43OCAxMy44OTZaIiBmaWxsPSJ3aGl0ZSIvPiYjeGE7PC9zdmc+;container=0;" parent="AOUFwX7jz5b8gHtSBeTc-169" vertex="1">
          <mxGeometry x="43.99515151515152" y="86.14999999999996" width="27.69545454545455" height="27.69545454545455" as="geometry" />
        </mxCell>
        <mxCell id="AOUFwX7jz5b8gHtSBeTc-171" value="&lt;div style=&quot;font-size: 1px&quot;&gt;&lt;font style=&quot;font-size:22.58px;font-family:Arial;color:#000000;direction:ltr;letter-spacing:0px;line-height:120%;opacity:1&quot;&gt;Kubernetes&lt;br&gt;&lt;/font&gt;&lt;/div&gt;&lt;div style=&quot;font-size: 1px&quot;&gt;&lt;font style=&quot;font-size:22.58px;font-family:Arial;color:#000000;direction:ltr;letter-spacing:0px;line-height:120%;opacity:1&quot;&gt;cluster 2&lt;/font&gt;&lt;/div&gt;" style="verticalAlign=middle;align=center;overflow=width;vsdxID=7;fillColor=none;gradientColor=none;shape=stencil(nZBLDoAgDERP0z3SIyjew0SURgSD+Lu9kMZoXLhwN9O+tukAlrNpJg1SzDH4QW/URgNYgZTkjA4UkwJUgGXng+6DX1zLfmoymdXo17xh5zmRJ6Q42BWCfc2oJfdAr+Yv+AP9Cb7OJ3H/2JG1HNGz/84klThPVCc=);strokeColor=none;points=[];labelBackgroundColor=none;rounded=0;html=1;whiteSpace=wrap;container=0;" parent="AOUFwX7jz5b8gHtSBeTc-169" vertex="1">
          <mxGeometry x="9.696969696969697" width="116.36363636363637" height="86.13999999999999" as="geometry" />
        </mxCell>
        <mxCell id="AOUFwX7jz5b8gHtSBeTc-172" style="vsdxID=6;fillColor=none;gradientColor=none;shape=stencil(vVNdD4IgFP01POIQms1nq//BEpVF4q6U9u/DoFJxPdjm2/04cO65cBDL2oo3AlHSGtAX0cncVIgdEKWyrgRIYyPEjohlhQZRgr7VucsbPiCH6Krvww29O0eGE5Q8XJaSaPcqnByWw9k2wWNZRFMHhzc+SlwhQHhATDxBj3kvWwzacCN1PSFXHEqBLRcuFC8nrbYTognKfjol65GSNIn28SL5SjGf2efL2UBMwO1nWykl3M1mzxJ8ib/eZHkrG8j47RMbfA1WSKWcP8f9uSFtyZmZHZ8=);strokeColor=#5282ff;spacingTop=-3;spacingBottom=-3;spacingLeft=-3;spacingRight=-3;points=[];labelBackgroundColor=none;rounded=0;html=1;whiteSpace=wrap;container=0;" parent="AOUFwX7jz5b8gHtSBeTc-169" vertex="1">
          <mxGeometry x="-5.000000000000057" y="-10" width="330" height="290" as="geometry" />
        </mxCell>
        <mxCell id="AOUFwX7jz5b8gHtSBeTc-173" style="edgeStyle=orthogonalEdgeStyle;rounded=0;orthogonalLoop=1;jettySize=auto;html=1;" parent="1" source="AOUFwX7jz5b8gHtSBeTc-174" target="AOUFwX7jz5b8gHtSBeTc-156" edge="1">
          <mxGeometry relative="1" as="geometry">
            <Array as="points">
              <mxPoint x="1785" y="170" />
              <mxPoint x="1478" y="170" />
            </Array>
          </mxGeometry>
        </mxCell>
        <mxCell id="AOUFwX7jz5b8gHtSBeTc-174" style="vsdxID=5;fillColor=none;gradientColor=none;shape=stencil(vVPLEoIgFP0aljgEVuPa6j+YRGUica6U9vdhUKk4LWzG3X0cOPdcOIilTclrgShpDOiLaGVmSsQOiFJZlQKksRFiR8TSXIMoQN+qzOU175F9dNX3/obOnSP9CUoeLktIFL8KJ4flcLZN8NhtRJiDwxsf7VwhQHjAhniCDvNONhi04UbqakSuOBQCWy6cK16MWk0rRB2U/XRKVgMlSRwl+1nyhWI+s0+Xs4KYgNvPtlBKuJvVniX4En+9yfxWVpDx2yc2+Bosl0o5fw77U0PakjMzOz4B);strokeColor=#ff5958;spacingTop=-3;spacingBottom=-3;spacingLeft=-3;spacingRight=-3;points=[];labelBackgroundColor=none;rounded=0;html=1;whiteSpace=wrap;container=0;" parent="1" vertex="1">
          <mxGeometry x="1720" y="-8.850000000000023" width="130" height="80" as="geometry" />
        </mxCell>
        <mxCell id="AOUFwX7jz5b8gHtSBeTc-175" value="&lt;div style=&quot;&quot;&gt;&lt;font face=&quot;Arial&quot;&gt;&lt;span style=&quot;font-size: 22.58px;&quot;&gt;Prometheus&lt;/span&gt;&lt;/font&gt;&lt;/div&gt;" style="verticalAlign=bottom;align=center;overflow=width;vsdxID=6;fillColor=none;gradientColor=none;strokeColor=none;spacingTop=-3;spacingBottom=-3;spacingLeft=-3;spacingRight=-3;points=[];labelBackgroundColor=none;rounded=0;html=1;whiteSpace=wrap;container=0;" parent="1" vertex="1">
          <mxGeometry x="1720" y="40" width="130" height="25" as="geometry" />
        </mxCell>
        <mxCell id="AOUFwX7jz5b8gHtSBeTc-176" value="" style="shape=image;verticalLabelPosition=bottom;verticalAlign=top;imageAspect=0;image=data:image/svg+xml,PHN2ZyB4bWxucz0iaHR0cDovL3d3dy53My5vcmcvMjAwMC9zdmciIHdpZHRoPSIzMiIgaGVpZ2h0PSIzMiIgdmlld0JveD0iMCAwIDMyIDMyIiBmaWxsPSJub25lIj4mI3hhOzxwYXRoIGQ9Ik0wIDE2QzAgNy4xNjM0NCA3LjE2MzQ0IDAgMTYgMEMyNC44MzY2IDAgMzIgNy4xNjM0NCAzMiAxNkMzMiAyNC44MzY2IDI0LjgzNjYgMzIgMTYgMzJDNy4xNjM0NCAzMiAwIDI0LjgzNjYgMCAxNloiIGZpbGw9IiM1MjgyRkYiLz4mI3hhOzxwYXRoIGZpbGwtcnVsZT0iZXZlbm9kZCIgY2xpcC1ydWxlPSJldmVub2RkIiBkPSJNOC45OTg5OCAyMi44NThWMjEuMTM4QzguOTk4OTggMjEuMDU4IDkuMDYyOTggMjEuMDA1IDkuMTM5OTggMjEuMDA1SDE4Ljg1OUMxOC45MzYgMjEuMDA1IDE5IDIxLjA1OCAxOSAyMS4xMzhWMjIuODU4QzE5IDIyLjkzOCAxOC45MzYgMjMuMDA1IDE4Ljg1OSAyMy4wMDVIOS4xMzk5OEM5LjEwMTg3IDIzLjAwNCA5LjA2NTcxIDIyLjk4OCA5LjAzOTMyIDIyLjk2MDVDOS4wMTI5MyAyMi45MzI5IDguOTk4NDQgMjIuODk2MSA4Ljk5ODk4IDIyLjg1OFpNOC45OTk5OCAxOC44NThWMTcuMTM4QzguOTk5OTggMTcuMDcxIDkuMDYzOTggMTcuMDA1IDkuMTQwOTggMTcuMDA1SDIyLjg2QzIyLjkzNyAxNy4wMDUgMjMuMDAxIDE3LjA3MSAyMy4wMDEgMTcuMTM4VjE4Ljg1OEMyMy4wMDEgMTguOTM4IDIyLjkzNyAxOS4wMDUgMjIuODYgMTkuMDA1SDkuMTQwOThDOS4xMDI4NyAxOS4wMDQgOS4wNjY3MSAxOC45ODggOS4wNDAzMiAxOC45NjA1QzkuMDEzOTMgMTguOTMyOSA4Ljk5OTQ0IDE4Ljg5NjEgOC45OTk5OCAxOC44NThaTTguOTk4OTggMTQuODU4VjEzLjEzOEM4Ljk5ODk4IDEzLjA3MSA5LjA2Mjk4IDEzLjAwNCA5LjEzODk4IDEzLjAwNEgyMC44NkMyMC45MzYgMTMuMDA0IDIxIDEzLjA3MSAyMSAxMy4xMzhWMTQuODU4QzIxIDE0LjkzOCAyMC45MzYgMTUuMDA0IDIwLjg2IDE1LjAwNEg5LjEzODk4QzkuMTAxMjIgMTUuMDAyNyA5LjA2NTQ2IDE0Ljk4NjcgOS4wMzkzMSAxNC45NTk1QzkuMDEzMTcgMTQuOTMyMiA4Ljk5ODY5IDE0Ljg5NTggOC45OTg5OCAxNC44NThaTTguOTk5OTggMTAuODU4VjkuMTM4MDNDOC45OTk5OCA5LjA3MTAzIDkuMDYzOTggOS4wMDQwMyA5LjE0MDk4IDkuMDA0MDNIMjIuODU3QzIyLjkzNSA5LjAwNDAzIDIyLjk5OSA5LjA3MTAzIDIyLjk5OSA5LjEzNzAzVjEwLjg1N0MyMi45OTkgMTAuOTM3IDIyLjkzNSAxMS4wMDQgMjIuODU3IDExLjAwNEg5LjE0MDk4QzkuMTAyODcgMTEuMDAzIDkuMDY2NzEgMTAuOTg3IDkuMDQwMzIgMTAuOTU5NUM5LjAxMzkzIDEwLjkzMTkgOC45OTk0NCAxMC44OTUxIDguOTk5OTggMTAuODU3VjEwLjg1OFoiIGZpbGw9IndoaXRlIi8+JiN4YTs8L3N2Zz4=;" parent="1" vertex="1">
          <mxGeometry x="1769" y="1.419999999999959" width="32" height="32" as="geometry" />
        </mxCell>
        <mxCell id="AOUFwX7jz5b8gHtSBeTc-177" style="vsdxID=5;fillColor=none;gradientColor=none;shape=stencil(vVPLEoIgFP0aljgEVuPa6j+YRGUica6U9vdhUKk4LWzG3X0cOPdcOIilTclrgShpDOiLaGVmSsQOiFJZlQKksRFiR8TSXIMoQN+qzOU175F9dNX3/obOnSP9CUoeLktIFL8KJ4flcLZN8NhtRJiDwxsf7VwhQHjAhniCDvNONhi04UbqakSuOBQCWy6cK16MWk0rRB2U/XRKVgMlSRwl+1nyhWI+s0+Xs4KYgNvPtlBKuJvVniX4En+9yfxWVpDx2yc2+Bosl0o5fw77U0PakjMzOz4B);strokeColor=#ff5958;spacingTop=-3;spacingBottom=-3;spacingLeft=-3;spacingRight=-3;points=[];labelBackgroundColor=none;rounded=0;html=1;whiteSpace=wrap;container=0;" parent="1" vertex="1">
          <mxGeometry x="1860" y="-15" width="170" height="135" as="geometry" />
        </mxCell>
        <mxCell id="AOUFwX7jz5b8gHtSBeTc-178" value="&lt;div style=&quot;font-size: 1px&quot;&gt;&lt;font style=&quot;font-size:22.58px;font-family:Arial;color:#000000;direction:ltr;letter-spacing:0px;line-height:120%;opacity:1&quot;&gt;InsureTech&lt;/font&gt;&lt;/div&gt;&lt;div style=&quot;font-size: 1px&quot;&gt;&lt;font style=&quot;font-size:22.58px;font-family:Arial;color:#000000;direction:ltr;letter-spacing:0px;line-height:120%;opacity:1&quot;&gt;namespace (Cold Standby)&lt;/font&gt;&lt;/div&gt;" style="verticalAlign=bottom;align=center;overflow=width;vsdxID=6;fillColor=none;gradientColor=none;strokeColor=none;spacingTop=-3;spacingBottom=-3;spacingLeft=-3;spacingRight=-3;points=[];labelBackgroundColor=none;rounded=0;html=1;whiteSpace=wrap;container=0;" parent="1" vertex="1">
          <mxGeometry x="1860" y="30" width="170" height="80" as="geometry" />
        </mxCell>
        <mxCell id="AOUFwX7jz5b8gHtSBeTc-179" value="" style="shape=image;verticalLabelPosition=bottom;verticalAlign=top;imageAspect=0;aspect=fixed;image=data:image/svg+xml,PHN2ZyB4bWxucz0iaHR0cDovL3d3dy53My5vcmcvMjAwMC9zdmciIHdpZHRoPSIzMiIgaGVpZ2h0PSIzMiIgdmlld0JveD0iMCAwIDMyIDMyIiBmaWxsPSJub25lIj4mI3hhOzxwYXRoIGQ9Ik0wIDE2QzAgNy4xNjM0NCA3LjE2MzQ0IDAgMTYgMFYwQzI0LjgzNjYgMCAzMiA3LjE2MzQ0IDMyIDE2VjE2QzMyIDI0LjgzNjYgMjQuODM2NiAzMiAxNiAzMlYzMkM3LjE2MzQ0IDMyIDAgMjQuODM2NiAwIDE2VjE2WiIgZmlsbD0iIzUyODJGRiIvPiYjeGE7PHBhdGggZD0iTTExLjk5NSAyNEw3LjAwMDk4IDE3LjczOEw4Ljc4MTk4IDkuOTI3TDE2IDYuNDUzTDIzLjIxOCA5LjkyOEwyNC45OTkgMTcuNzM5TDIwLjAwNSAyNEgxMS45OTVaTTIwIDEzLjE5NkwxNS45OTkgMTAuODk5TDEyIDEzLjE5NlYxOC4xTDE2IDIwLjQwMUwyMCAxOC4xVjEzLjE5NlpNMTguNzggMTMuODk2SDE4Ljc4N0wxNiAxNS40OTlMMTMuMjE0IDEzLjg5NUgxMy4yMTlMMTUuOTk5IDEyLjI5OUwxOC43OCAxMy44OTZaIiBmaWxsPSJ3aGl0ZSIvPiYjeGE7PC9zdmc+;container=0;" parent="1" vertex="1">
          <mxGeometry x="1935.88" y="-5.2000000000000455" width="27.69545454545455" height="27.69545454545455" as="geometry" />
        </mxCell>
        <mxCell id="AOUFwX7jz5b8gHtSBeTc-180" value="" style="shape=image;verticalLabelPosition=bottom;verticalAlign=top;imageAspect=0;aspect=fixed;image=data:image/svg+xml,PHN2ZyB4bWxucz0iaHR0cDovL3d3dy53My5vcmcvMjAwMC9zdmciIHdpZHRoPSIzMiIgaGVpZ2h0PSIzMiIgdmlld0JveD0iMCAwIDMyIDMyIiBmaWxsPSJub25lIj4mI3hhOzxwYXRoIGQ9Ik0wIDE2QzAgNy4xNjM0NCA3LjE2MzQ0IDAgMTYgMFYwQzI0LjgzNjYgMCAzMiA3LjE2MzQ0IDMyIDE2VjE2QzMyIDI0LjgzNjYgMjQuODM2NiAzMiAxNiAzMlYzMkM3LjE2MzQ0IDMyIDAgMjQuODM2NiAwIDE2VjE2WiIgZmlsbD0iIzUyODJGRiIvPiYjeGE7PHBhdGggZD0iTTI0IDE1VjEzSDIyVjExQzIyIDEwLjQgMjEuNiAxMCAyMSAxMEgxOVY4SDE3VjEwSDE1VjhIMTNWMTBIMTFDMTAuNCAxMCAxMCAxMC40IDEwIDExVjEzSDhWMTVIMTBWMTdIOFYxOUgxMFYyMUMxMCAyMS42IDEwLjQgMjIgMTEgMjJIMTNWMjRIMTVWMjJIMTdWMjRIMTlWMjJIMjFDMjEuNiAyMiAyMiAyMS42IDIyIDIxVjE5SDI0VjE3SDIyVjE1SDI0Wk0xOSAxOUgxM1YxM0gxOVYxOVoiIGZpbGw9IndoaXRlIi8+JiN4YTs8L3N2Zz4=;container=0;" parent="1" vertex="1">
          <mxGeometry x="1724.1527272727274" y="190.00036122952633" width="37.63636363636363" height="37.63636363636363" as="geometry" />
        </mxCell>
        <mxCell id="AOUFwX7jz5b8gHtSBeTc-181" value="&lt;div style=&quot;font-size: 1px&quot;&gt;&lt;span style=&quot;font-family: Arial; font-size: 22.58px; letter-spacing: 0px; background-color: transparent;&quot;&gt;&lt;br&gt;&lt;/span&gt;&lt;/div&gt;&lt;div style=&quot;font-size: 1px&quot;&gt;&lt;span style=&quot;font-family: Arial; font-size: 22.58px; letter-spacing: 0px; background-color: transparent;&quot;&gt;&lt;br&gt;&lt;/span&gt;&lt;/div&gt;&lt;div style=&quot;font-size: 1px&quot;&gt;&lt;span style=&quot;font-family: Arial; font-size: 22.58px; letter-spacing: 0px; background-color: transparent;&quot;&gt;VM&lt;/span&gt;&lt;/div&gt;" style="verticalAlign=middle;align=center;overflow=width;vsdxID=7;fillColor=none;gradientColor=none;shape=stencil(nZBLDoAgDERP0z3SIyjew0SURgSD+Lu9kMZoXLhwN9O+tukAlrNpJg1SzDH4QW/URgNYgZTkjA4UkwJUgGXng+6DX1zLfmoymdXo17xh5zmRJ6Q42BWCfc2oJfdAr+Yv+AP9Cb7OJ3H/2JG1HNGz/84klThPVCc=);strokeColor=none;points=[];labelBackgroundColor=none;rounded=0;html=1;whiteSpace=wrap;container=0;" parent="1" vertex="1">
          <mxGeometry x="1673" y="170" width="139.94" height="100" as="geometry" />
        </mxCell>
        <mxCell id="AOUFwX7jz5b8gHtSBeTc-183" style="edgeStyle=orthogonalEdgeStyle;rounded=0;orthogonalLoop=1;jettySize=auto;html=1;strokeColor=default;startArrow=classic;startFill=1;" parent="1" source="AOUFwX7jz5b8gHtSBeTc-140" target="AOUFwX7jz5b8gHtSBeTc-43" edge="1">
          <mxGeometry relative="1" as="geometry">
            <Array as="points">
              <mxPoint x="1847" y="760" />
              <mxPoint x="897" y="760" />
            </Array>
          </mxGeometry>
        </mxCell>
        <mxCell id="AOUFwX7jz5b8gHtSBeTc-184" value="Replication DB" style="edgeLabel;html=1;align=center;verticalAlign=middle;resizable=0;points=[];" parent="AOUFwX7jz5b8gHtSBeTc-183" vertex="1" connectable="0">
          <mxGeometry x="0.0576" y="-3" relative="1" as="geometry">
            <mxPoint as="offset" />
          </mxGeometry>
        </mxCell>
        <mxCell id="AOUFwX7jz5b8gHtSBeTc-182" style="edgeStyle=orthogonalEdgeStyle;rounded=0;orthogonalLoop=1;jettySize=auto;html=1;" parent="1" source="AOUFwX7jz5b8gHtSBeTc-172" target="AOUFwX7jz5b8gHtSBeTc-140" edge="1">
          <mxGeometry relative="1" as="geometry" />
        </mxCell>
        <mxCell id="AOUFwX7jz5b8gHtSBeTc-189" value="&lt;font style=&quot;font-size: 18px;&quot;&gt;WAL-G backup&lt;/font&gt;&lt;div&gt;&lt;font style=&quot;font-size: 18px;&quot;&gt;every 15 minutes&lt;/font&gt;&lt;/div&gt;" style="rounded=0;whiteSpace=wrap;html=1;" parent="1" vertex="1">
          <mxGeometry x="1123" y="810" width="185" height="90" as="geometry" />
        </mxCell>
        <mxCell id="AOUFwX7jz5b8gHtSBeTc-191" style="edgeStyle=orthogonalEdgeStyle;rounded=0;orthogonalLoop=1;jettySize=auto;html=1;" parent="1" source="AOUFwX7jz5b8gHtSBeTc-43" target="AOUFwX7jz5b8gHtSBeTc-189" edge="1">
          <mxGeometry relative="1" as="geometry" />
        </mxCell>
        <mxCell id="AOUFwX7jz5b8gHtSBeTc-193" style="edgeStyle=orthogonalEdgeStyle;rounded=0;orthogonalLoop=1;jettySize=auto;html=1;" parent="1" source="AOUFwX7jz5b8gHtSBeTc-140" target="AOUFwX7jz5b8gHtSBeTc-189" edge="1">
          <mxGeometry relative="1" as="geometry" />
        </mxCell>
      </root>
    </mxGraphModel>
  </diagram>
</mxfile>
